<svg width="704" height="592" xmlns="http://www.w3.org/2000/svg" xmlns:xlink="http://www.w3.org/1999/xlink"><defs><circle id="a" cx="54.5" cy="54.5" r="54.5"/><circle id="b" cx="54.5" cy="54.5" r="54.5"/></defs><g fill="none" fill-rule="evenodd"><path d="M192 160.707c11.429 0 15.585-13.683 22.079-21.192 4.645-5.372 12.574-3.77 14.921-11.291C234.902 109.31 219.106 96 198.5 96S164 107.674 161 125.224s10.394 35.483 31 35.483z" fill="#191847"/><path d="M193.262 148.49c-4.608-5.409-7.726-12.037-7.205-19.465 1.501-21.4 31.292-16.692 37.086-5.891 5.795 10.801 5.107 38.199-2.383 40.13-2.986.77-9.349-1.117-15.825-5.02L209 187h-24l8.262-38.51z" fill="#B28B67"/><path d="M203.38 134.723a6.256 6.256 0 00-2.933-.723c-3.4 0-6.157 2.686-6.157 6 0 1.352.46 2.6 1.234 3.604-1.459 2.404-2.454 4.93-2.78 7.528-5.057 0-23.51-19.132-5.127-37.132 18.383-18 44.949 7.696 36.966 9.195-4.59.861-13.833 5.243-21.203 11.528z" fill="#191847"/><path fill="#997659" d="M177 270l37.63 123.024 18.23 104.624h14.293L227.891 270z"/><path d="M163.538 270c2.556 67.547-.452 102.389-1.024 108.526-.572 6.137-8.406 45.929-26.95 121.182l15.23-5.23c29.308-69.019 39.295-104.89 42.656-113.952 3.362-9.063 12.29-45.905 26.783-110.526h-56.695z" fill="#B28B67"/><path d="M135.678 494.402c-1.119 2.986-1.678 5.221-1.678 6.704 0 1.803.3 4.434.901 7.894h56.402c1.466-4.845.62-7.461-2.538-7.848a312.366 312.366 0 01-7.87-1.046l-26.215-11.687a1 1 0 00-1.332.532l-1.685 4.088c-2.923 1.364-5.299 2.046-7.126 2.046-1.485 0-3.536-.6-6.153-1.8a2 2 0 00-2.706 1.117zM229.678 494.402c-1.119 2.986-1.678 5.221-1.678 6.704 0 1.803.3 4.434.901 7.894h56.402c1.466-4.845.62-7.461-2.538-7.848a312.366 312.366 0 01-7.87-1.046l-26.215-11.687a1 1 0 00-1.332.532l-1.685 4.088c-2.923 1.364-5.299 2.046-7.126 2.046-1.485 0-3.536-.6-6.153-1.8a2 2 0 00-2.706 1.117z" fill="#E4E4E4"/><path fill="#69A1AC" d="M172 270l16 62.68h48.87L229.584 270z"/><path d="M163 270c-5.265 15.78-6.265 36.674-3 62.68h49.87L223.584 270H163z" fill="#89C5CC"/><g><path d="M266.89 250.131l31.898 23.424c8.651 2.335 15.88 5.239 21.684 8.714 1.371 1.249 3.028 3.78-2.658 3.342-5.687-.437-11.688-.642-12.472 1.298-.785 1.94 2.656 4.259 1.07 6.876-1.057 1.745-6.053-2.63-14.986-13.124l-31.588-13.099 7.052-17.43zm-144.35-9.756l17.61 3.189c-20.44 40.56-31.387 62.007-32.843 64.338-3.274 5.246.031 14.697 1.279 19.683-7.247 1.82-4.569-9.183-13.736-6.735-8.368 2.234-15.4 7.716-23.363.627-.979-.871-1.733-3.636 1.527-5.117 8.122-3.69 20.098-10.545 22.013-13.159 2.612-3.564 11.783-24.506 27.512-62.826z" fill="#B28B67"/><path d="M274.32 252.678c4.105-.295 8.569.385 13.355 1.998a4.5 4.5 0 01.048 8.512c.916.669 1.84 1.333 2.772 1.994l-8.047 16.428c-33.863-16.884-65.69-29.614-80.194-57.488-4.868-9.356-3.22-41.134-3.685-52.694l10.695-4.387c14.909 30.817 35.085 60.382 65.056 85.637z" fill="#69A1AC"/><path d="M161 278.91c31.438 3.453 56.184 3.453 74.236 0 2.237-.428 2.139-10.07 1.101-12.703-16.152-41.005-26.777-71.023-26.777-99.504-2.963 1.548-8.15 1.78-15.56.696-19.914 29.35-29.067 63.028-33 111.51z" fill="#191847"/><path d="M155.159 283.758a4.496 4.496 0 01-1.351-4.062l.52-2.955a4.502 4.502 0 013.9-3.688c.335-1.5.625-2.99.864-4.47 2.019-12.496-1.43-24.749-1.269-36.78-16.08 13.719-30.505 37.408-43.275 71.068l-18.887-5.558c.72-2.677 1.467-5.321 2.24-7.933-2.18-1.238-4.728-6.914-2.894-7.864a22.056 22.056 0 016.011-2.078c17.317-52.159 45.637-90.305 84.958-114.438h11.372C194 209.28 240.25 305.955 224.191 388.518c-29.683 6.629-72.06-13.995-113.308 2.482 1.535-33.25 32.28-72.31 44.276-107.242z" fill="#89C5CC"/><path fill-opacity=".1" fill="#000" d="M190.106 166l-5.16 15.865 10.39 11.894-9.39 9.347L208.663 242l-27.778-38.817 9.222-9.424-9.222-10.51z"/><path d="M202 257a4 4 0 110-8 4 4 0 010 8zm5 23a4 4 0 110-8 4 4 0 010 8zm1 23a4 4 0 110-8 4 4 0 010 8z" fill-opacity=".4" fill="#000"/></g><g><path d="M511.738 221.49c4.608-5.409 7.726-12.037 7.205-19.465-1.501-21.4-31.292-16.692-37.086-5.891-5.795 10.801-5.107 38.199 2.383 40.13 2.986.77 9.349-1.117 15.825-5.02L496 260h24l-8.262-38.51z" fill="#B28B67"/><path d="M513.582 226.308c3.012-13.402 11.593-22.537 10.283-28.526-.874-3.993-3.203-6.477-6.986-7.45-1.957-7.916-8.269-11.284-18.935-10.102-15.999 1.774-25.763 8.418-21.546 23.038 3.876 0 8.556-1.402 15.026 1 2.054.762 3.522 3.125 4.406 7.09h2.924c2.838-4.705 5.637-6.434 8.395-5.187 2.759 1.247 3.386 4.276 1.881 9.088l1.44 11.049h3.112z" fill="#191847"/><path d="M587 385H472c-8.837 0-16 7.163-16 16v92c0 8.837 7.163 16 16 16h115c8.837 0 16-7.163 16-16v-92c0-8.837-7.163-16-16-16zm-16 28a4 4 0 014 4v60a4 4 0 01-4 4h-83a4 4 0 01-4-4v-60a4 4 0 014-4h83z" fill="#C5CFD6"/><path d="M356.841 504c19.716-24.076 33.056-41.925 40.02-53.546 11.926-19.9 21.686-37.606 24.766-44.37 7.345-16.129-16.909-23.681-22.398-16.158-8.308 11.386-26.051 47.217-53.229 107.491L356.841 504z" fill="#B28B67"/><path d="M397.242 497l36.693-92.363c7.848-16.837-30.05-27.905-35.818-20.07-13.094 17.79-44.216 87.967-48.117 93.267L397.242 497z" fill="#2F3676"/><path d="M494.967 478.477c-7.148-10.426-33.146-45.503-47.306-60.016-4.07-4.17-8.04-8.173-11.795-11.904-11.162-11.087-33.39 7.549-22.248 17.648 27.747 25.15 68.23 59.102 71.613 62.13 4.741 4.242 14.228-1.306 9.736-7.858z" fill="#B28B67"/><path d="M493.295 473.767c2.463 2.027 4.064 3.683 4.806 4.967.901 1.562 1.957 3.99 3.166 7.287l-48.845 28.201c-3.692-3.463-4.267-6.152-1.726-8.065a312.366 312.366 0 006.292-4.842l16.86-23.228a1 1 0 011.42-.205l3.502 2.697c3.214-.28 5.612-.877 7.195-1.791 1.286-.743 2.762-2.287 4.428-4.634a2 2 0 012.902-.387zM365.322 500.402c1.119 2.986 1.678 5.221 1.678 6.704 0 1.803-.3 4.434-.901 7.894h-56.402c-1.466-4.845-.62-7.461 2.538-7.848 3.158-.386 5.781-.735 7.87-1.046l26.215-11.687a1 1 0 011.332.532l1.685 4.088c2.923 1.364 5.299 2.046 7.126 2.046 1.485 0 3.536-.6 6.153-1.8a2 2 0 012.706 1.117z" fill="#E4E4E4"/><path d="M447.138 409.25c30.497-4.968 50.924-8.366 61.281-10.192 29.524-5.206 38.133-21.093 33.043-55.756h-54.396c-7.199 2.079-37.276 14.935-90.234 38.57-9.528 4.73-7.753 18.675-6.012 23.27.071.187 16.134 27.711 48.188 82.57l44.498-28.347-36.452-46.775c-.962-1.939-.934-3.052.084-3.34z" fill="#5C63AB"/><g><path d="M434.507 330.46l-28.328 27.635c-8.242 3.516-14.996 7.398-20.26 11.647-1.184 1.428-2.473 4.164 3.097 2.94 5.57-1.225 11.484-2.262 12.531-.45 1.047 1.81-2.038 4.587-.103 6.957 1.29 1.581 5.628-3.446 13.014-15.081l29.458-17.368-9.41-16.28zm138.523-25.01l-21.897.082c16.678 54.034 25.53 82.325 26.56 84.874 2.313 5.734-2.584 14.468-4.678 19.161 6.82 3.052 6.094-8.25 14.697-4.248 7.853 3.654 13.826 10.273 22.899 4.675 1.115-.688 2.338-3.28-.616-5.304-7.357-5.045-17.96-13.875-19.393-16.782-1.954-3.963-7.81-31.45-17.572-82.458z" fill="#B28B67"/><path d="M506.305 243.332l-8.647-1.483c-13.622 48.152-83.61 80.974-87.907 98.974-1.576 6.602 3.175 9.939.721 11.95l11.24 8.227c1.903-2.22 5.965 1.841 14.447-1s70.146-59.652 70.146-116.668z" fill="#E87613"/><path d="M491.76 249.734c.996 63.75-35.856 80.01-27.647 105.584 6.778 21.119 71.66 43.82 82.887 23.12 4.545-8.38 6.607-18.514 6.84-29.532 2.87 8.465 5.14 15.752 6.809 21.861 2.88 10.54 14.045 12.216 14.045 16.276l14.71-4.06c-.998-5.516 5.936-8.202 4.077-20.526-8.331-55.217-30.714-95.243-67.15-120.076l-.377-5.39a4 4 0 00-4.27-3.712l-26.934 1.883a4 4 0 00-3.711 4.27l.72 10.302z" fill="#FF9B21"/></g></g><g><g transform="translate(145 83)"><use fill="#69A1AC" xlink:href="#a"/><circle stroke="#FFF" stroke-width="4" stroke-linejoin="square" fill-opacity=".25" fill="#000" cx="54.5" cy="54.5" r="52.5"/></g><text font-family="Roboto-Regular, Roboto" font-size="34" letter-spacing="-.3" fill="#FFF" transform="translate(145 83)"><tspan x="35.685" y="67">J</tspan> <tspan x="54.144" y="67">S</tspan></text></g><g><g transform="translate(461 163)"><use fill="#FF9B21" xlink:href="#b"/><circle stroke="#FFF" stroke-width="4" stroke-linejoin="square" fill-opacity=".25" fill="#000" cx="54.5" cy="54.5" r="52.5"/></g><text font-family="Roboto-Regular, Roboto" font-size="34" letter-spacing="-.3" fill="#FFF" transform="translate(461 163)"><tspan x="33.037" y="67">TH</tspan></text></g></g></svg>