<svg width="704" height="592" xmlns="http://www.w3.org/2000/svg"><g fill="none" fill-rule="evenodd"><path d="M77.34 406.27c14.345-55.447 159.5-23.86 254.662-41.001 95.163-17.142 207.748-96.974 282.259-57.868 74.51 39.106-4.768 133.635-175.664 154.968C267.701 483.7 62.994 461.717 77.34 406.27z" fill="#F2F2F2"/><g opacity=".5"><path d="M106.883 117.975c-1.573 1.57-.962 7.152-.995 9.218-.05 3.215.15 6.402.418 9.606.18 2.145 1.196 22.618 4.022 21.045 1.593-.885.594-6.808.591-8.68-.006-4.165-.18-8.32-.457-12.475-.258-3.857-.42-7.67-.272-11.535.036-.943.919-11.412-3.307-7.179" fill="#89C5CC"/><path d="M175.384 115.452c-13.513.107-27.021.774-40.528 1.182-6.5.197-12.995.446-19.487.807-2.213.122-6.958-.586-8.801.593-4.092 2.617 2.507 3.229 4.266 3.165 26.73-.97 53.47-2.246 80.223-2.306 13.124-.03 26.24.344 39.366.26 5.017-.032 10.572-2.193 11.84 3.647 1.43 6.59-.214 13.926-.66 20.548-.3 4.42-.193 8.749.006 13.166.128 2.829-.205 6.017.296 8.794.481 2.674 2.403 4.277 4.165 1.282 1.053-1.79.529-6.209.599-8.282.094-2.792.006-5.584.006-8.377-.001-6.817.961-13.607.834-20.422-.082-4.395-.315-12.362-5.858-13.418-6.104-1.163-13.607.006-19.854-.065-15.478-.177-30.93-.695-46.413-.574" fill="#89C5CC"/><path d="M138.149 158.089c-5.096 0-10.192.03-15.287.115-4.37.072-11.24-.839-15.307.725-2.785 1.07-3.524 4.179 0 5.007 3.843.903 9.635-.574 13.656-.645 20.164-.356 40.522-.82 60.658.456 18.868 1.194 38.099 2.353 56.994 1.092 1.59-.106 9.698-.43 5.998-3.469-2.158-1.774-10.907-.607-13.712-.692-9.894-.298-19.798-.364-29.69-.74-9.762-.37-19.48-1.467-29.246-1.74-11.345-.315-22.715-.109-34.064-.109M133.05 129.107c7.942.347 15.8 11.865 7.764 17.431-7.539 5.224-21.667-.5-17.475-10.63-.603 1.465.762-1.59.779-1.61.797-.94 2.228-1.98 3.21-2.72 1.125-.847 2.296-1.78 3.652-2.204.89-.279.75.77 2.07-.267m-3.868-4.154c-3.717 1.45-5.413 3.088-7.968 6.05-1.767 2.05-4.02 3.13-4 5.9.004.613.792 1.287.928 1.878.188.816-.03 1.862.119 2.73 1.538 8.948 12.215 11.966 20.031 10.276 6.808-1.472 11.9-8.007 10.323-15.114-1.588-7.154-12.196-14.55-19.433-11.72" fill="#89C5CC"/><path d="M125.871 137.446c0 3.219 5.086 3.219 5.086 0 0-3.183-5.086-3.32-5.086 0M132.233 136.794c0 2.558 4.041 2.558 4.041 0 0-2.53-4.04-2.637-4.04 0M133.485 142.07c-1.294.497-2.936-.534-3.998.145-1.881 1.205.005 2.294 1.013 2.778 4.54 2.179 5.348-3.829 2.985-2.923M202.825 134.935c-.136.057-.617.261 0 0m-19.772-2.89c-3.399.767-6.268 3.94-9.96 3.516-2.83-.325-4.745-3.056-7.538-3.452-3.573-.509-13.298 7.642-8.185 9.04 2.983.817 4.638-4.634 7.273-4.924 2.085-.229 4.92 2.328 7.08 2.692 4.03.679 6.798-1.541 10.335-2.973 3.845-1.555 6.032-.155 9.375 1.574 2.64 1.365 5.125 2.254 8.144 1.69 2.834-.527 6.395-3.442 9.247-3.143 2.794.293 4.788 3.209 7.662 3.48 1.185.11 2.949.515 2.75-1.314-.16-1.463-1.793-1.215-2.815-1.748-2.628-1.368-5.086-3.792-8.257-3.585-2.386.156-4.558 1.832-6.756 2.634-7.2 2.626-11.248-5.081-18.355-3.487" fill="#89C5CC"/><path d="M189.067 178.414c-13.888.128-27.824.334-41.673 1.447-3.284.264-36.81 3.43-36.747 3.658.117.421 4.43 1.066 4.403 1.165-.291-.72-.955-1.019-1.993-.894 31.797 0 63.494-2.847 95.334-2.335 8 .128 16.03.075 24.025.327 1.995.063 6.94 1.493 8.508.592 4.114-2.365-3.36-2.638-4.597-2.738-15.669-1.253-31.547-1.379-47.26-1.222M106.53 185.162c-2.076 2.082-.164 9.57-.082 12.385.118 4.07.021 8.168.378 12.227.408 4.636 1.04 9.576 2.256 14.074.67 2.478 3.022 6.416 3.954 1.913.665-3.216-.345-7.482-.697-10.758-.47-4.383-.584-8.708-.601-13.113-.016-3.837-.09-7.69-.405-11.516-.163-1.987-1.162-8.833-4.802-5.212" fill="#69A1AC"/><path d="M158.769 223.301c-9.856.17-19.733.402-29.572 1.017-4.033.253-8.063.629-12.08 1.055-.82.087-9.895.455-5.84 3.804 1.83 1.512 9.359-.578 11.846-.796 4.182-.367 8.363-.605 12.558-.782 9.718-.413 19.466-.777 29.194-.609 17.767.309 35.419.446 53.19.05 2.525-.056 22.306.472 22.978-2.155.541-2.117-6.533-1.145-7.823-1.107-4.731.141-9.463.109-14.196.084-20.052-.102-40.22-.9-60.255-.56" fill="#69A1AC"/><path d="M237.694 181.65c.313 8.775 1.807 17.54 2.285 26.342.218 4.023.475 8.043.672 12.068.064 1.298-.46 4.427 1.076 5.174 2.106 1.024 2.39-1.04 2.784-2.436 1.139-4.033.368-9.272.265-13.414-.1-4.011-.107-8.03-.403-12.034-.303-4.09-1.126-8.104-1.509-12.18-.161-1.724.404-4.593-1.426-5.663-1.582-.925-3.813.24-3.744 2.143M140.82 196.247l.112.087-.112-.087m-8.376-2.6c3.123.892 5.688.56 8.672 2.833 2.473 1.885 5.01 4.644 5.83 7.692 1.896 7.042-4.53 10.902-10.553 10.978-6.17.077-15.303-1.354-14.987-9.262.243-6.076 4.68-12.005 11.038-12.241m.22-3.98c-8.099.403-14.632 9.499-14.562 17.154.085 9.28 10.598 11.67 18.067 11.734 8.429.072 16.834-5.748 14.576-15.227-1.81-7.595-10.293-14.066-18.081-13.66" fill="#69A1AC"/><path d="M124.517 202.125c0 2.588 4.088 2.588 4.088 0 0-2.558-4.088-2.667-4.088 0M133.092 200.99c0 2.608 4.12 2.608 4.12 0 0-2.578-4.12-2.689-4.12 0M128.365 206.892c-2.661 2.656 6.686 7.313 8.89 3.617 1.812-3.035-2.13-2.028-3.528-2.193-1.519-.178-4.123-2.66-5.362-1.424M203.1 201.043c-.257.108-.257.108 0 0m-35.103-4.324c-2.694.505-11.536 3.488-11.655 6.684-.219 5.81 8.44-.14 10.321-.905 5.108-2.076 7.792 2.159 12.924 2.382 4.456.194 8.554-3.62 12.752-3.169 4.399.473 6.515 5.152 11.592 2.668 2.687-1.315 2.619-3.34-.397-3.532-1.822-.115-3.075.638-4.975-.146-2.972-1.226-4.169-3.222-7.725-2.905-2.684.24-5.11 1.752-7.729 2.337-5.998 1.34-9.325-4.498-15.108-3.414M223.793 203.566c-.186.078-.186.078 0 0m.68-2.42c.029.014.232.296 0 0m-3.09-1.846c-.115.09-.115.09 0 0m.068-.023c.6.359 5.414 3.651 1.917 4.427-1.776.393-3.245-3.18-1.917-4.427m-1.594-3.647c-7.713 3.517.587 16.102 6.64 10.988 2.547-2.151 2.882-6.5.404-8.742-1.484-1.343-5.029-3.167-7.044-2.246" fill="#69A1AC"/><path d="M147.452 245.224c-9.625.003-19.334-.2-28.946.371-1.617.096-7.78-.212-8.613 1.48-1.524 3.092 4.816 1.557 5.737 1.464 19.138-1.916 39.13-.813 58.33-.267 15.704.446 31.323.723 47.008 1.533 4.123.212 8.242.447 12.362.696 1.343.08 4.723.97 5.006-1.174.262-1.985-3.954-1.537-5.007-1.592-8.375-.441-16.744-.903-25.117-1.374-20.152-1.136-40.576-1.14-60.76-1.137" fill="#89C5CC"/><path d="M109.584 248.663c-1.797 1.787-.955 8.61-1.005 10.866-.088 3.945-.274 7.887-.357 11.83-.087 4.122.034 8.263.277 12.379.102 1.728 1.52 10.08 3.754 5.3.998-2.136-.024-8.085-.009-10.505.028-4.404.265-8.79.484-13.189.189-3.781.196-7.566.36-11.348.053-1.206.196-9.044-3.504-5.333" fill="#89C5CC"/><path d="M239.955 283.898c-9.367.96-18.884.506-28.286 1.216-8.103.61-16.199.86-24.323 1.032-18.396.389-36.824.768-55.167 2.3-4.18.35-8.355.72-12.547.908-2.096.093-10.893-.86-11.548 1.35-1.115 3.763 8.291 2.273 10.32 2.214 4.462-.129 8.903-.451 13.352-.79 18.704-1.425 37.478-1.85 56.222-2.443 10.193-.322 20.316-1.068 30.487-1.746 5.07-.338 10.153-.35 15.222-.677 1.327-.086 6.022.083 6.976-.984.655-.733.821-2.522-.708-2.38" fill="#89C5CC"/><path d="M236.78 249.303c.321 8.983.829 17.957 1.132 26.94.091 2.701-.725 7.542.78 9.924 2.418 3.83 4.306-.223 4.749-2.61 1.397-7.533-.105-15.854-.496-23.434-.148-2.891.75-9.327-.648-11.915-1.331-2.465-5.636-2.218-5.517 1.095M221.054 262.096c3.589.972 4.113 8.774.064 9.351-6.027.86-3.391-7.742-.064-9.35m-1.005-3.103c-1.095-.034-3.621-.336-4.296.555-.564.746.006 2.318-.06 3.029-.237 2.538-2.3 4.004-1.378 7 .626 2.034 2.303 3.946 4.347 4.652 10.785 3.728 10.654-17.111 1.387-15.236M131.14700000000002 255.887l-.126-1.083c5.848 2.76 10.5 7.895 8.56 14.787-1.482 5.258-6.835 7.123-11.822 5.825-5.52-1.438-8.158-5.988-6.67-11.575.687-2.578 2.795-6.042 5.521-6.871 1.27-.386 4.075.597 4.538-1.083m-3.42-2.183c-1.479.1-2.919.716-4.126 1.559a6.738 6.738 0 014.126-1.56m.043-3.395c-3.654.112-6.049 2.324-8.216 4.98-.68.834-2.98 3.045-2.695 4.168.225.889.814 2.187 2.055 1.197-6.498 12.95 10.288 23.996 20.535 14.99 9.563-8.404.075-25.729-11.68-25.335" fill="#89C5CC"/><path d="M124.45 262.337c0 1.725 2.678 1.725 2.678 0 0-1.724-2.677-1.724-2.677 0M129.02 262.632c0 1.752 2.72 1.752 2.72 0 0-1.753-2.72-1.753-2.72 0M131.092 268.787c-1.272.103-5.93-.33-6.748.785-1.367 1.863.814 1.928 1.885 2.129.965.181 5.159.079 5.75-.778.522-.757.4-2.246-.887-2.136M187.216 263.956c-.219.09-.219.09 0 0m-17.601-1.287c-2.867.21-5.296 1.86-8.038 2.518-2.926.703-4.193-.59-6.854-1.435-2.768-.88-4.737-.533-6.962 1.358-1.26 1.071-4.026 3.537-3.238 5.44 1.804 4.355 5.888-2.731 7.809-3.06 2.996-.515 5.662 2.105 9.118 1.355 3.13-.678 5.909-2.828 9.18-2.851 2.734-.02 5.311 1.477 8.011 1.839 4.122.553 6.828-.91 10.638-1.997 3.304-.942 5.62.3 8.728 1.345 1.42.477 6.16 2.213 5.287-.935-.247-.889-6.492-2.479-7.46-2.785-3.414-1.078-5.576-.658-8.829.582-2.712 1.035-4.994 1.539-7.902.97-3.204-.628-6.118-2.6-9.488-2.344" fill="#89C5CC"/></g><g opacity=".5"><path d="M277.015 124.77c.462-9.957 1.099-19.9 1.434-29.862.166-4.937.297-9.874.422-14.812.028-1.1.057-2.198.082-3.298.081-3.735-.362-4.04 3.397-4.372 16.77-1.48 33.605-1.971 50.394-3.31 20.249-1.615 40.603-2.73 60.908-3.23 9.024-.223 18.086-.684 27.11-.403 2 .062 5.925-.459 6.713 1.096.34.671-.374 2.982-.464 3.757-.283 2.42-.547 4.85-.71 7.282-.96 14.347-.388 29.057 2.39 43.186-6.517-3.674-14.75-6.836-22.347-6.208-7.744.64-13.537 5.114-19.736 9.232-3.506 2.33-4.687 2.942-8.186.685-3.014-1.945-5.866-4.168-8.71-6.35-4.389-3.368-8.53-7.02-12.787-10.55C349.1 101.12 338.318 91.88 327.51 94.6c-7.722 1.944-14.852 6.188-21.554 10.342-9.958 6.17-18.972 13.727-28.941 19.827m134.203-63.708c-38.473 0-76.658 3.73-115.022 5.747-4.007.21-8 .521-11.993.906-2.66.257-9.167-.821-10.911 1.452-1.164 1.517-.164 1.745 0 3.186.206 1.816.084 3.969.03 5.891-.128 4.633-.262 9.265-.367 13.898-.398 17.51-.646 35.016.063 52.522.155 3.817 1.546 9.103.785 12.813-.551 2.686-2.393 4.32 1.855 4.817 4.18.488 9.29-.754 13.475-1.152 4.208-.4 8.415-.835 12.628-1.183 18.317-1.509 36.812-1.28 55.177-1.783 18.531-.506 37.069-.538 55.606-.548 7.756-.004 16.619.432 24.187-1.703 2.662-.751 3.093-1.121 2.436-3.763-.124-.501-.928-.686-1.164-1.592-.321-1.233-.156-2.732-.232-4.016-.244-4.192-.33-8.391-.527-12.586-.33-7.009-1.538-13.81-2.432-20.748-1.03-8.013-.978-16.148-.999-24.213-.012-4.474.103-8.933.462-13.394.23-2.86 1.64-7.132.925-9.8-.356-1.33-.938-2.383-2.321-2.955-.876-.362-1.613-.078-2.479-.17-1.027-.11-1.668-.253-2.899-.532-5.272-1.195-10.91-1.094-16.283-1.094" fill="#69A1AC"/><path d="M389.927 80.11c-.003 2.788-.438 6.903.848 9.528 1.63 3.33 3.67 2.29 4.21-.84.31-1.793.302-7.1-.274-8.688-.815-2.248-4.784-3.78-4.784 0" fill="#89C5CC"/><path d="M394.605 81.186c-2.617.093-10.24-.536-12.012 1.57-3.038 3.61 2.25 4.249 4.521 4.047 2.628-.234 10.749.336 12.509-1.771 2.944-3.525-2.96-3.92-5.018-3.846M293.023 174.337c11.508 1.999 7.928 19.545-2.962 15.48-3.794-1.415-9.385-5.507-7.287-10.328 1.566-3.603 6.672-5.495 10.249-5.152m-4.765-5.456c-7.484 1.26-12.6 9.36-10.035 16.424 2.476 6.816 11.865 11.807 18.79 9.357 6.61-2.338 9.908-11.134 7.68-17.568-2.33-6.722-9.915-9.31-16.435-8.213M358.256 176.389c-2.865.238-5.341 2.244-8.224 2.6-2.696.331-4.93-.591-7.454-1.328-3.05-.891-5.849-1.283-8.967-.492-2.382.606-4.732 2.227-7.207 2.422-4.87.385-10.53-5.171-14.332 1.113-1.823 3.013.824 4.953 3.55 3.548 2.842-1.464 1.447-1.989 4.973-1.123 2.941.72 5.318 1.113 8.265.102 2.67-.916 5.012-2.591 7.913-2.78 2.84-.183 5.312 1.11 8.027 1.669 3.339.686 6.293.167 9.457-.88 3.01-.996 4.21-1.54 7.246-.652 1.923.562 6.124 2.35 7.995.91 3.236-2.49-1.096-2.854-2.802-3.208-2.747-.569-5.59-2.134-8.44-1.901M423.824 174.717l.068.053-.068-.053m-2.813-.589c4.183.27 8.706 7.89 3.164 8.16-3.902.19-8.266-6.482-3.164-8.16m-.587-6.235c-13.227 3.694-7.18 22.341 5.578 20.187 5.794-.978 7.759-7.692 5.843-12.662-.823-2.134-2.427-3.934-4.344-5.162-1.415-.906-5.46-2.813-7.077-2.363" fill="#89C5CC"/><path d="M278.195 287.074c-.39-1.735-.179-4.388-.2-5.001-.103-2.875-.138-5.75-.25-8.624-.263-6.848-.438-13.736-.966-20.569-.504-6.531-1.778-12.865-1.814-19.445-.025-4.45-1.262-15.726 2.636-18.75 6.698-3.908 4.05 9.882 3.94 12.27-.33 7.185.117 14.054.84 21.194.663 6.545-.099 13.06-.353 19.604-.135 3.475-.209 6.944-.47 10.413-.082 1.082.043 5.956-.524 8.552 1.46-.063 2.85.003 3.625-.02 5.426-.165 10.852-.309 16.278-.513 20.87-.784 41.752-.43 62.618-1.42 19.736-.939 39.545-1.137 59.296-1.38 1.728.15 2.5 1.964 1.391 3.358-1.085 1.364-6.115 1.065-7.683 1.192-5.563.447-11.115.648-16.695.701-11.75.112-23.456.615-35.187 1.285-20.843 1.188-41.716 1.09-62.57 1.937-5.062.206-10.125.36-15.19.493-2.67.07-9.663 1.679-10.986-1.512-.935-2.255.364-3.293 2.264-3.765zm115.45-81.159c6.315-.058 12.595.052 18.9.414 2.796.16 5.591.315 8.39.434 1.616.068 5.31-.462 6.727.288 5.566 2.945-5.774 3.267-7.152 3.244-5.785-.097-11.559-.547-17.343-.69-21.275-.522-42.708.773-63.964 1.645-10.225.42-20.445.48-30.666 1.053-5.587.314-11.17.673-16.758.967-2.576.136-5.153.268-7.733.333-1.588.04-4.824.698-6.293.098-1.25-.512-2.262-1.227-1.574-2.742.74-1.631 3.962-.937 5.326-.963 4.924-.096 9.837-.372 14.752-.673 11.16-.683 22.296-1.482 33.478-1.673 21.31-.363 42.591-1.537 63.91-1.735zm29.314 7.263c.003-2.922 3.507-3.51 5.061-1.523 1.486 1.901.53 7.656.566 9.93.12 7.493.828 14.944 1.501 22.403.668 7.398 1.14 14.8 1.656 22.21.24 3.424 2.87 17.092-.954 19.088-4.882 2.546-3.961-10.41-4.098-12.771a697.253 697.253 0 00-1.678-22.798c-1.112-12.26-2.064-24.23-2.054-36.54z" fill="#69A1AC"/><path d="M358.483 248.367a782.982 782.982 0 0119.977 7.425c3.546 1.37 7.073 2.784 10.61 4.173 1.773.696 9.142 2.443 9.566 4.212.598 2.499-7.257-.57-8.507-.97-3.53-1.128-7.017-2.391-10.503-3.647-7.8-2.81-15.567-5.71-23.398-8.434-.732-.255-1.465-.51-2.198-.763a2366.993 2366.993 0 00-24.876 11.333 852.212 852.212 0 00-13.241 6.283c-3.26 1.58-9.161 6.084-12.753 6.006-1.358-.03-2.274-.322-2.416-1.969-.18-2.106 3.212-2.971 4.583-3.657 4.7-2.35 9.43-4.642 14.172-6.904 9.42-4.493 18.928-8.807 28.47-13.034l.164-.073c-5.292-1.791-10.598-3.54-15.917-5.25-3.039-.979-24.35-6.238-23.572-9.06.872-3.165 19.747 4.296 22.65 5.221a937.44 937.44 0 0121.364 7.068c17.014-7.643 34.208-15.788 51.955-21.35 1.118-.35 1.824.803 1.57 1.77-.339 1.294-4.32 2.341-5.424 2.835-4.37 1.952-8.764 3.855-13.135 5.808-9.521 4.255-19.061 8.47-28.582 12.727l-.56.25zM295.547 301.89c4.352.764 7.422 4.938 6.944 9.31-.645 5.907-6.532 8.614-11.97 7.843-6.172-.874-7.47-6.091-4.48-11.11.662-1.111 1.423-2.44 2.626-3.026.828-.402 1.882-.046 2.548-.37 2.335-1.137.931-2.948 4.332-2.646m-1.98-3.859c-5.311.679-15.123 6.823-14.626 12.971.431.713 1.08 1.005 1.944.875a9.543 9.543 0 00.204 3.953c.504 1.692 1.51 3.08 2.859 4.18 2.777 2.27 6.573 2.827 10.03 2.43 6.457-.743 11.546-5.156 11.909-11.871.354-6.555-5.368-13.416-12.32-12.538M319.285 306.032c-2.382 1.263-6.151 3.202-7.548 5.6-1.476 2.534.052 5.305 3.162 4.107 2.469-.952 4.039-3.974 6.673-4.943 2.324-.854 3.26-.419 5.717.432 2.53.877 4.743 1.725 7.479 1.51 3.439-.27 6.417-2.264 9.783-2.718 2.834-.382 5.17.72 7.885 1.16 3.149.508 5.208-.684 8.154-1.304 2.004-.423 5.536 1.295 6.997.653 3.287-1.445-.19-3.212-2.01-3.796-3.064-.983-4.95-.115-7.865.7-3.165.885-4.532.22-7.558-.593-6.121-1.645-10.85 2.332-16.652 1.609-5.372-.67-8.586-5.398-14.217-2.417M419.375 303.094c5.892 5.523-.727 13.382-7.223 8.968-2.287-1.554-2.323-4.05-.544-6.283 1.628-2.042 5.203-2.838 7.767-2.685zm-2.184-4.464c-5.504 1.07-10.697 3.596-11.195 9.95-.486 6.198 5.872 9.077 11.213 8.67 11.991-.913 11.124-20.774-.018-18.62z" fill="#89C5CC"/></g><path d="M524.53 126.392c-3.873.056-13.438 1.114-14.86 4.553-1.08 2.61 2.127 2.037 3.845 1.087 2.325-1.284 4.364-2.053 7.245-2.444 10.973-1.49 21.517 3.853 32.385 4.528 4.116.256 9.085.423 13.015-.578 2.8-.712 3.165-2.266-.03-2.503-2.714-.2-5.717.433-8.5.415-11.515-.074-21.75-5.22-33.1-5.058" fill="#C1DEE2" opacity=".5"/><g opacity=".5"><path d="M113.994 262.666c-8.424.095-16.844.406-25.252.938-7.995.506-16.67.122-24.535 1.672-2.234.44-5.25 2.475-2.28 4.714 2.086 1.574 9.723-.237 12.215-.39 9.18-.564 18.363-1.24 27.555-1.565 8.702-.307 17.404-.416 26.11-.503 1.329-.013 3.535-.439 4.86-.053 1.9.555 1.45.706 1.592 3.12.258 4.374.187 8.764.1 13.142-.084 4.237-.24 8.473-.225 12.711.01 3.025-.956 9.034.561 11.66 2.185 3.78 4.45-.326 4.614-2.838.312-4.804.172-9.668.173-14.478.001-4.516.034-9.031-.125-13.545-.116-3.26.35-8.95-1.406-11.915-1.789-3.018-6.095-2.367-9.238-2.511-4.902-.226-9.813-.21-14.719-.159" fill="#89C5CC"/><path d="M60.395 268.115c.009 8.484-.972 16.912-1.247 25.386-.127 3.896-.382 8.175.603 12 .995 3.861 4.155 4.698 4.52.387.736-8.73.556-17.784 1.13-26.584.202-3.107 1.52-8.802.29-11.711-1.084-2.563-5.3-3.054-5.296.522" fill="#89C5CC"/><path d="M139.391 305.512c-14.63 1.937-29.924 1.23-44.659 1.535-7.069.146-14.136.155-21.206.23-2.468.025-8.734-.914-10.868.473-3.398 2.208.289 3.912 2.538 3.961 13.952.306 28.06-.336 42.01-.794 6.267-.205 12.554-.306 18.805-.838 3.848-.328 8.053-.646 11.79-1.68.796-.221 2.53-.175 2.708-1.261.11-.672-.09-1.768-1.118-1.626M78.555 317.845c-4.066.023-16.319-1.865-18.003 2.1-2.244 5.288 6.513 4.053 8.868 3.993 5.35-.137 10.695-.152 16.046-.15 5.25.002 10.5-.032 15.75-.156 1.52-.037 5.06.594 5.935-1.237.665-1.392.14-2.49-1.087-3.226-2.95-1.774-10.616-.745-14.07-.905-4.473-.206-8.96-.42-13.439-.42M128.022 318.824c-2.324.138-7.024-.82-9.106.243-2.366 1.209-1.532 3.102.51 3.933 1.415.576 7.218.274 8.596-.393 1.436-.696 3.06-3.972 0-3.783M153.498 268.947c-2.482.681-1.729 14.771-1.793 17.005-.175 6.12-.863 13.816 1.17 19.71 1.297 3.757 3.788 3.248 3.363-.708-.372-3.472-1.012-6.903-1.288-10.398-.626-7.907-1.478-16.341-.887-24.255.252.46 2.606 4.725 3.16 4.407-.167.1-2.715-6.027-3.725-5.76" fill="#89C5CC"/><path d="M181.415 263.758c-5.022.074-10.045.163-15.066.302-3.992.112-10.266-.544-13.927 1.135-4.36 2-2.291 6.455 1.803 6.549 3.623.083 7.486-.734 11.141-.859 9.873-.338 19.764-.41 29.642-.494 8.933-.077 18.246.875 27.1-.466 1.314 11.663-2.238 23.375-1.03 35.171.187 1.831.104 4.419 2.435 4.836 2.943.526 3.064-2.389 3.176-4.476.318-5.959.146-11.923.582-17.89.404-5.53 1.2-11.18.528-16.72-.828-6.815-4.093-6.268-9.867-6.552-12.193-.598-24.31-.715-36.517-.536" fill="#89C5CC"/><path d="M164.583 305.17c-2.56.065-6.81-.723-8.45 1.73-1.706 2.554.318 4.781 2.799 5.305 2.937.62 6.766-.23 9.814-.239 3.174-.01 6.349.026 9.523.038 13.608.054 27.275.26 40.873-.303 1.899-.078 7.289.559 8.603-1.263 1.167-1.616.35-3.065-1.185-3.888-2.52-1.35-7.697-.837-10.5-.944-3.462-.132-6.928-.175-10.392-.229-13.672-.21-27.415-.544-41.085-.206M176.094 316.975c-5.092.087-10.526-.137-15.568.635-4.433.68-4.979 4.965-.206 5.466 4.385.461 9.702-.4 14.109-.683 1.565-.1 3.385.042 4.135-1.688.784-1.808-.714-3.541-2.47-3.73M214.594 317.425c-2.719.067-10.658-1.101-12.004 2.003-2.242 5.169 8.506 3.205 10.568 3.13 2.599-.096 12.727 1.421 12.73-2.716.002-4.057-8.806-2.48-11.294-2.417" fill="#89C5CC"/><path d="M59.955 343.108c.007 9.403-.578 18.894.28 28.272.354 3.88.293 11.31 2.54 14.599 1.595 2.334 3.807 2.17 4.678-.633.582-1.873-.349-5.62-.453-7.625-.1-1.924-.217-3.847-.306-5.771-.228-4.957-.21-9.907-.142-14.867.058-4.254 1.082-9.883.117-13.975-.9-3.813-6.714-4.705-6.714 0" fill="#69A1AC"/><path d="M154.452 334.837c-16.313.409-32.663.043-48.961.85-8.038.399-16.045 1.273-24.042 2.145-3.93.429-7.857.87-11.78 1.354-1.183.145-11.018.527-7.319 4.267 1.615 1.633 6.756-.073 8.79-.314 3.938-.465 7.884-.87 11.827-1.287 7.505-.794 15.018-1.546 22.555-1.963 17.75-.983 35.572-.688 53.339-1.344 4.806-.177 9.597-.304 14.405-.115 1.263.05 10.54.521 6.512-2.905-1.905-1.62-9.086-.785-11.466-.833-4.62-.096-9.242.029-13.86.145" fill="#69A1AC"/><path d="M179.859 384.442a1.301 1.301 0 01-.008.011c-.889 1.31-4.173.946-5.611 1.044-4.377.297-8.673.799-13.012 1.45-8.644 1.295-17.212 2.092-25.95 2.308-17.281.427-34.634.028-51.889 1.211-3.821.263-7.585.713-11.344 1.432-2.685.515-7.858 2.275-8.172-2.16-.379-5.344 13.03-5.335 16.863-5.691 16.462-1.532 33.194-1.209 49.706-.979 7.984.111 15.954.355 23.933-.133 7.97-.487 16.21-.36 24.123-1.217-1.02-3.95-.87-8.891-1.156-12.928-.734-10.365-.538-20.766-1.01-31.141-.209-4.571 6.018-5.264 7.864-1.564 1.866 3.738.654 11.153.774 15.297.28 9.595 2.058 20.335.18 29.824-.655 3.3-3.438 5.035-5.291 3.236z" fill="#69A1AC"/><path d="M189.893 340.997c-2.204.3-4.042 2.186-3.058 4.578 1.24 3.012 4.93 1.836 7.368 1.645 7.75-.607 15.842.605 23.499-.31 2.09-.25 5.124-1.388 3.247-4.198-1.411-2.112-6.553-1.741-8.739-1.944-7.475-.691-14.852-.507-22.317.23M202.973 354.138c-3.005.203-10.002.044-11.269 3.463-2.271 6.135 6.628 3.974 9.337 3.625 3.148-.406 10.568.68 12.244-2.373 2.997-5.458-7.676-4.896-10.312-4.715M195.244 367.602c-1.425 1.427-1.428 3.974 0 5.4 1.749 1.747 5.558 1.384 7.855 1.512 3.204.179 12.407 1.873 13.998-1.9 2.147-5.09-6.187-4.984-8.928-5.273-3.168-.333-10.3-2.366-12.925.261" fill="#C1DEE2"/><path d="M82.922 280.463c0 5.473 8.548 5.473 8.548 0 0-5.443-8.548-5.526-8.548 0M99.136 280.525c0 6.257 9.737 6.245 9.737 0 0-6.235-9.737-6.299-9.737 0M89.328 288.844c-4.733 1.307-.373 5.318 1.824 6.234 3.493 1.457 8.26 2.53 11.753.347 1.39-.87 2.519-2.024 1.5-3.71-1.085-1.795-2.571-.997-4.224-.831-2.093.21-3.785.178-5.806-.493-1.509-.501-3.402-2-5.047-1.547M175.175 280.81c0 3.701 5.748 3.701 5.748 0 0-3.702-5.748-3.702-5.748 0M187.887 281.367c0 4.113 6.386 4.113 6.386 0 0-4.114-6.386-4.113-6.386 0M187.414 290.293c-3.354.432-13.056 1.416-13.599 5.55-.837 6.38 9.793 1.217 12.22.716 3.09-.638 5.85-.472 8.934-.348 1.694.068 3.947.342 3.77-2.238-.292-4.236-8.393-4.056-11.325-3.68" fill="#89C5CC"/><path d="M103.077 349.119c-2.431.648-5.612 4.852-3.94 7.424 2.744 4.22 3.953-2.259 5.101-2.882 2.089-1.135 3.784 3.011 5.967.836 3.445-3.431-4.96-5.959-7.128-5.378M130.935 346c-2.883.027-8.97 4.109-9.401 7.123-.256 1.79.931 3.512 2.862 3.536 2.629.032 3.464-3.386 5.743-4.101 2.458-.771 2.093 1.004 4.216 1.925 1.554.674 3.497.392 4.037-1.519 1.018-3.603-4.494-7.02-7.457-6.964M108.865 363.258c-4.612 2.703 2.976 8.495 5.607 9.22 3.971 1.093 11.965-.947 12.906-5.799.374-1.93-.833-3.68-2.964-3.334-1.755.285-2.88 2.486-4.505 3.274-2.193 1.064-4.143.991-6.007-.61-1.519-1.304-2.332-4.329-5.037-2.75" fill="#69A1AC"/><path d="M112.207 403.19c-4.12.878-8.308.289-12.449 1.115-4.222.843-6.745 2.438-10.667.83l-.553-.233c-3.036-1.307-6.217-1.695-9.395.39-1.88 1.233-7.59 5.498-6.901 8.101 1.49 5.643 7.914-3.205 9.552-4.068 3.124-1.644 5.265.457 8.481 1.05 3.852.71 6.951-1.326 10.58-2.136 4.243-.948 9.017-1.279 13.335-1.786 1.706-.2 8.166 1.148 8.75-.974 1.001-3.647-9.113-2.633-10.733-2.29M141.934 414.554c.27.204.054.04 0 0m11.54-11.585c3.528-.358 14.813-2.878 17.13.767 1.51 2.374-.885 11.137-3.17 12.27-1.826.905-6.08-.095-8.084-.166-3.729-.132-7.465-.19-11.19-.422-1.248-.078-5.268.151-6.247-.954-1.156-1.306-1.105-8.264-1.377-9.99 3.243 1.05 9.547-1.16 12.938-1.505m7.533-3.573c-4.518.195-9.035.535-13.519 1.14-2.5.338-5.031 1.237-7.34 1.662-.744.137-1.952-.243-2.864.198-2.667 1.287-.332 9.997.311 12.324.988 3.574 3.473 4.153 6.956 4.49 4.587.444 9.268.305 13.87.248 4.435-.054 10.416.929 12.905-3.522 1.609-2.877 3.335-9.579 1.96-12.786-1.81-4.22-8.564-3.91-12.28-3.754" fill="#C1DEE2"/><path d="M211.596 416.948c-.242.31-.242.31 0 0m.99-1.193c-.075.113-.422.48 0 0m-10.774-.328c1.992-.375 3.984-.746 5.978-1.11-1.888 2.644-3.876 1.551-7.101 1.321l1.123-.211m-9.5-.935c.504-.17 1.009-.338 1.514-.507-.015.384.067.744.247 1.08-.864-.094-1.727-.194-2.59-.3l.829-.273m-4.403-3.251c-.028-.694 1.014-.218 1.612-.264-1.152 1.014-1.69 1.102-1.612.264m15.745-7.865c.152-.193.353-.183.603.03-.273.091-1.323.536-.603-.03m10.211-1.2c.027 0 .594.764 0 0m-.286-.251c.148.113.148.113 0 0m-1.275-.15c2.088.353 1.93 2.803 0 0m-24.528-.166c-.424.352-.28.01 0 0m7.984-5.217c-3.544.207-10.05-.001-13.01 1.888-3.864 2.465-1.831 10.95-1.485 14.67.51 5.499 3.098 7.064 8.276 7.641 6.18.69 12.53.818 18.74.655 5.595-.148 8.781-2.072 9.806-7.962.314-1.802 1.11-4.59 1.085-6.316-.017-1.197-.614-1.743-.84-2.762-1.284-5.797-3.433-6.484-9.374-6.737-4.373-.186-8.907-1.301-13.198-1.077" fill="#89C5CC"/></g><g opacity=".5"><path d="M354.532 273.239c9.012.192 19.236 5.18 17.811 15.745-1.044 7.74-7.745 14.024-15.507 14.566-8.342.582-17.162-5.82-18.295-14.314-1.275-9.553 7.179-16.188 15.991-15.997m-4.42-4.301c-3.653.545-7.144 2.463-10.36 4.182-1.229.656-7.454 4.657-2.571 5.651-11.765 18.974 15.922 36.598 31.49 24.266 6.99-5.537 10.67-16.036 6.151-24.254-4.673-8.5-15.756-11.19-24.71-9.845" fill="#89C5CC"/><path d="M347.96 285.088c0 3.543 5.5 3.543 5.5 0 0-3.544-5.5-3.544-5.5 0M358.157 285.655c0 3.842 5.964 3.842 5.964 0s-5.964-3.842-5.964 0M351.275 293.253c-.802 2.915 8.348 4.41 8.653 1.036.145-1.611-8.095-3.07-8.653-1.036M378.1 291.452c10.529-1.264 21.385-.68 31.965-.377 2.648.077 5.295.15 7.944.195 1.683.028 5.32.836 6.789.048 6.017-3.227-5.787-4.787-7.458-4.935-10.524-.866-26.765-1.175-37.32-.767-3.122.121-3.797 6.06-1.92 5.836" fill="#89C5CC"/><path d="M425.48 343.795c.09-11.033.486-22.14 1.334-33.139.345-4.483.76-8.96 1.103-13.444.162-2.112.912-5.07-.33-6.923-1.278-1.909-4.084-2.306-5.775-.614-2.024 2.62-1.436 7.018-1.688 10.187-.387 4.874-.854 9.744-1.087 14.627-.449 9.453-.554 19.07.206 28.51.359 4.454 1.136 8.8 2.17 13.144.472 1.977 4.22 10.786 3.432 12-1.221 1.884-10.246 1.172-12.204 1.225-5.024.135-10.05.222-15.074.318-4.302.083-8.604.141-12.907.18-1.708.015-11.746-.29-9.52 2.244-24.899 1.735-50.274-1.162-75.022-2.155-1.25-.051-3.295-.406-5.183-.508-.226-.912-.412-1.727-.458-2.293-.325-3.977-.41-7.968-.763-11.945-.645-7.275-1.896-14.477-2.64-21.74-.743-7.255-.668-14.532-1.1-21.804-.075-1.247-.25-11.455-2.826-13.935 1.221.463 3.19.523 4.325.432 9.18-.74 18.293-2.336 27.395-3.705 2.604-.391 8.513-.114 10.673-1.416 1.87-1.127 2.609-5.077-.643-4.758-9.076.973-18.102 2.481-27.106 3.967-2.409.397-4.811.822-7.213 1.256-1.604.29-5.838.268-7.082 1.235-1.511 1.174-1.671 1.973-1.16 2.504-.711-.196-1.564.111-2.59 1.137-1.937 2.522-.115 8.732.116 11.69.277 3.546.414 7.1.575 10.653a176.593 176.593 0 002.139 20.45c1.24 7.61 2.294 15.252 3.537 22.86a52.898 52.898 0 001.284 5.827c-3.349 1.713-1.072 4.437 1.584 4.92l.057.01c.828 2.018 1.986 3.889 2.89 1.184.07-.208.102-.463.11-.75 6.86.776 14.399.294 21.152.57 14.628.597 29.346 1.494 43.989 1.04 5.797-.18 11.611-.695 17.36-1.469 3.367-.453 6.748-.993 10.062-1.744.237-.054.598-.11 1.015-.18.068 0 .137-.003.201-.004a573.844 573.844 0 0015.215-.423c4.256-.177 8.53-.268 12.773-.669 2.635-.25 8.204-.203 9.821-2.853 1.471-2.41-.988-8.616-1.337-11.323-.614-4.765-.85-9.575-.81-14.376" fill="#C1DEE2"/><path d="M374.056 311.94c-4.055.347-7.804 2.25-11.896 2.275-3.435.02-6.816-1.007-10.27-.856-4.05.177-6.28 2.797-9.828 3.673-2.825.698-4.605-1.465-7.09-2.421-3.137-1.209-5.455-.585-8.144 1.242-1.976 1.343-6.584 4.356-6.548 7.072.106 8.225 9.703-3.137 11.637-3.275 2.57-.183 5.443 2.747 8.178 2.914 3.616.221 5.934-2.11 9.264-2.96 3.367-.858 7.007.194 10.383.52 3.851.373 7.222-.485 10.948-1.405 3.61-.89 6.688-.843 10.357-.095 2.476.505 8.645 3.44 9.729-.334 1.475-5.141-13.886-6.592-16.72-6.35M375.29 327.628c-8.308.806-16.667 1.514-25.013 1.74-3.615.098-17.511-1.45-16.279 3.142 1.057 3.939 19.967 1.46 23.819 1.16 4.252-.331 8.497-.793 12.729-1.328 1.499-.19 5.12.006 6.178-1.251 1.009-1.2.512-3.658-1.434-3.463M317.975 348.547c-.189.08-.189.08 0 0m1.753-.024c2.071-.065 1.627-1.158 3.693-.589.953.263 1.051-.127 1.79.784 1.441 1.777.084 5.647-1.337 7.079-5.261 5.302-11.575-7.038-4.146-7.274m0-5.202c-14.403.484-8.377 22.733 4.159 18.191 5.177-1.876 8.431-10.326 5.386-15.074-1.481-2.31-3.37-2.721-5.852-2.881-.576-.037-1.3.8-1.66.762-.855-.09-.775-1.045-2.033-.998M354.17 349.31c-.256-.08 4.549 1.317 4.023.77 1.122 1.166-.387 3.925-1.656 4.407-3.073 1.167-4.797-3.612-2.366-5.178m2.132-6.033c-4.51.64-7.99 2.517-8.607 7.532-.568 4.63 2.56 9.317 7.493 9.407 10.753.197 11.08-18.33 1.114-16.939M405.393 349.512c.63 8.22-7.894.696 0 0m-3.658-8.795c-.746 1.275-.11 2.627 1.015 3.368-10.054 2.125-7.777 17.254 2.454 15.019 5.203-1.137 6.16-6.608 5.384-11.125-.37-2.148-5.722-12.615-8.853-7.262" fill="#89C5CC"/></g><path d="M417.1 339.852c-2.637.352-8.87 2.538-8.816 4.885.084 3.664 5.382-.338 6.56-.876 6.33-2.892 14.53.855 21.121 1.652 3.022.366 8.934 1.041 11.603-.479 4.747-2.703-6.231-2.026-7.63-2.135-7.6-.59-15.16-4.076-22.838-3.047" fill="#C1DEE2" opacity=".5"/><g opacity=".5"><path d="M535.094 297.874c-.003 5.678-.29 11.474.757 17.084.317 1.699.567 4.952 2.358 5.833 1.8.885 3.545-.11 3.992-1.954.522-2.147-.622-5.359-.738-7.613-.16-3.078-.17-6.16-.171-9.242-.001-2.226.731-5.807-1.896-6.952-1.954-.852-4.302.732-4.302 2.844" fill="#C1DEE2"/><path d="M624.862 288.893c-18.813 1.888-37.897 2.28-56.778 3.266-8.727.455-19.275-.126-27.497 3.252-1.527.628-6.995 4.12-2.556 5.541 1.384.444 2.79-1.047 3.926-1.546 1.892-.831 4.083-1.089 6.101-1.413 17.156-2.755 35.101-2.275 52.434-3.563 4.441-.33 8.885-.67 13.317-1.105 3.166-.312 9.821-2.594 12.743-1.427 4.994 1.995 4.877 14.955 4.975 19.412.052 2.305-2.186 10.579 2.262 9.74 3.56-.671 2.27-9.267 1.993-11.618-.727-6.164-1.97-21.446-10.92-20.539" fill="#C1DEE2"/><path d="M631.8 320.751c-16.342 1.476-33.06.028-49.467.608-8.601.305-17.193.79-25.795 1.074-3.72.123-7.444.128-11.166.154-1.78.012-9.881 1.092-4.87 4.621 2.22 1.563 9.291.304 11.837.274 3.825-.045 7.647-.204 11.469-.354 8.852-.346 17.7-.826 26.556-1.065 8.473-.23 16.949-.279 25.42-.508 4.217-.115 8.49-.244 12.667-.86.943-.139 4.005-.249 4.66-1.3.619-.994.184-2.788-1.312-2.644" fill="#89C5CC"/><path d="M551.487 308.483c-.088.208-.088.208 0 0m7.076-2.151c.258.11.258.11 0 0m-.331-.06c3.813 3.887-2.051 8.527-5.623 4.733-3.792-4.026 3.168-4.72 5.623-4.733m-4.045-5.88c-13.135 2.337-8.484 19.843 3.784 17.313 5.386-1.11 8.466-6.536 6.612-11.748-.724-2.037-2.303-4.272-4.501-4.914-1.096-.32-2.066.184-3.11.066-.996-.112-1.549-.94-2.785-.718M604.458 305.319c-7.92.025-15.843.361-23.763.511-2.43.046-8.673-1.04-8.682 2.789-.011 4.092 6.944 2.58 9.258 2.525 7.856-.187 15.732-.532 23.556-1.28 1.977-.189 8.819.138 8.812-2.55-.008-2.848-7.585-1.995-9.18-1.995" fill="#C1DEE2"/><path d="M623.377 332.027c-19.59.526-39.15.709-58.725 1.712-7.322.375-14.634.653-21.966.653-1.412 0-4.256-.546-5.585.343-3.607 2.412.5 4.483 2.851 4.613 16.08.892 32.394-1.329 48.465-1.83 9.409-.294 18.82-.38 28.222-.859 2.566-.13 5.131-.282 7.692-.481 1.473-.114 5.368.199 6.558-.663 5.198-3.762-5.76-3.535-7.512-3.488" fill="#89C5CC"/><path d="M533.494 341.606c-.184 5.079-.204 10.07.46 15.12.262 1.988.382 4.244 2.712 4.749 2.116.458 3.189-1.142 3.627-2.916 1.07-4.333.129-10.57.116-15.07-.005-2.226-.008-4.717-2.758-5.22-2.098-.384-4.077 1.132-4.157 3.337" fill="#89C5CC"/><path d="M644.142 353.85c-31.712 1.672-63.382 3.13-95.116 4.472-2.475.105-21.701-.105-14.98 6.6 2.076 2.07 7.425.668 10.11.537 4.034-.199 8.071-.35 12.106-.555 15.996-.815 32.035-1.034 48.02-1.948a444.448 444.448 0 0026.323-2.314c4.162-.487 9.329-.437 13.227-2.068 2.006-.84 4.17-4.928.31-4.723" fill="#89C5CC"/><path d="M625.908 328.085c-2.412 2.402-1.172 7.14-.99 10.11.25 4.085.554 8.173 1.064 12.235.332 2.64.156 6.747 1.564 9.027 1.649 2.67 5.28 2.374 6.77-.205 1.319-2.281.651-7.08.617-9.608-.047-3.496-.265-6.997-.472-10.486-.174-2.916.487-7.588-1.117-10.084-1.63-2.535-5.176-3.236-7.436-.989M553.425 346.725c-.283.218-.283.218 0 0m5.632-.706c5.256 1.057-3.242 7.193-5.928 2.982-.42-.658-.638-1.467.036-2.039.614-.522 1 .402 1.581.154 1-.428 3.244-1.137 4.311-1.097m-.725-5.038c-3.588.284-8.521.506-10.297 4.103-2.386 4.83 1.694 9.562 6.415 10.297 4.543.708 11.325-1.808 11.689-7.107.293-4.271-3.77-7.62-7.807-7.293M588.29 343.536c-3.715.06-11.017-1.038-14.253.772-3.202 1.792-1.774 4.982 1.147 5.745 1.931.504 5.087-.31 7.097-.391 2.645-.108 5.291-.131 7.938-.168 4.45-.06 8.898-.01 13.349-.01 4.545 0 9.169.125 13.706-.209 5.742-.423 5.587-4.722-.028-5.26-9.538-.912-19.387-.63-28.957-.479M578.8 391.686c0 2.042 1.813 0 1.8 0 .013 0-1.8-2.043-1.8 0M537.805 375.243c.117 5.937.194 11.88.447 17.813.08 1.876-.457 5.539 1.817 6.495 2.531 1.065 3.318-1.589 3.61-3.387.923-5.696.018-12.2-.071-17.964-.03-1.935.389-4.63-1.81-5.594-1.792-.788-4.03.674-3.993 2.637" fill="#89C5CC"/><path d="M635.444 375.336c.15.354.15.354 0 0m.211-.06c.122.05.614.257 0 0m-47.963-4.8c-9.115.143-18.236.252-27.345.642-3.887.167-7.82.301-11.694.668-2.744.26-9.56.367-11.34 2.61-3.673 4.628 4.115 3.366 5.793 2.99 3.053-.684 6.169-.903 9.288-1.068 6.767-.357 13.537-.548 20.313-.684 18.375-.37 36.763-.314 55.14-.397 1.78-.007 4.996-.723 6.64-.003 1.646.721 1.553 2.495 1.724 4.554.227 2.74-1.58 7.961-.203 10.266 2.136 3.574 5.242.54 5.717-2.067.656-3.601-.384-7.925-1.402-11.368-1.436-4.856-3.43-5.05-8.127-5.43a230.502 230.502 0 00-16.464-.762c-9.344-.086-18.696-.095-28.04.05M623.742 395.02c-19.77 2.296-40.102.943-59.977 1.024-4.833.02-9.67.058-14.499.293-2.55.123-8.595-.58-10.342 1.387-3.683 4.148 2.951 4.751 5.373 4.58 4.897-.349 9.805-.508 14.715-.546 17.292-.133 34.683.674 51.961-.18 7.24-.357 14.316-1.595 21.421-2.979 1.574-.306 12.35-2.355 6.205-4.81-3.631-1.45-11.043.786-14.857 1.23" fill="#89C5CC"/><path d="M566.02 387.428c-.137.177-.137.177 0 0m-.132-.03c-.047.126-.193.44 0 0m-1.247-1.61c.028.038.146.188 0 0m-.048-.011c.476.568.796 1.202.961 1.901-4.096 1.11-5.674-2.204-.961-1.901m-.26-.155c.002 0 .578.243 0 0m-6.728-4.937c-2.651 3.301-4.84 7.148-1.534 10.92 2.955 3.37 8.9 3.806 12.65 1.555 3.864-2.32 3.53-7.202.836-10.389-1.736-2.052-3.142-1.995-5.66-2.33-1.714-.228-4.838-1.56-6.292.244M585.008 386.795c0 4.396 18.982 2.504 22.358 2.499 2.829-.004 19.933 1.556 18.705-2.968-1.009-3.717-17.856-1.87-21.444-1.875-3.101-.004-19.619-2.133-19.619 2.344" fill="#89C5CC"/></g><g opacity=".5" fill="#89C5CC"><path d="M367.636 394.69c9.506 1.38 19.395 5.851 19.311 16.916-.07 9.304-7.872 19.205-17.891 18.649-9.017-.5-17.507-10.36-18.636-18.81-.585-4.378.51-9.092 3.084-12.693 3.375-4.719 8.729-4.711 14.132-4.062m-4.49-6.014c-6.875.038-11.906 2.525-16.16 7.775-1.527 1.882-3.302 3.908-4.463 6.04-1.085 1.992-.895 7.057 2.828 4.683-.917 9.806 4.814 19.323 13.052 24.347 8.956 5.462 19.078 4.397 26.53-3.258 6.823-7.008 9.224-18.845 4.233-27.512-4.989-8.663-16.547-12.168-26.02-12.075"/><path d="M383.763 386.048c-4.402 3.226-8.421 7.475-11.76 11.783-3.263 4.212-5.42 9.471-9.34 13.143-1.979-2.156-4.298-7.979-8.247-5.668-3.276 1.917-1.166 5.213.43 7.378 4.12 5.589 8.697 7.839 13.982 2.316 4.8-5.015 7.525-11.705 12.013-17.009 1.969-2.327 5.01-4.637 6.578-7.206 1.42-2.329-.337-7.176-3.656-4.737"/></g><g opacity=".5"><path d="M481.249 165.72c.148-.022.293-.038.432-.047 3.67-.233 7.389-.137 11.066-.222 7.53-.174 15.357.237 22.844-.645 1.521-.197 2.053 1.755 1.37 2.767-.765 1.136-3.217 1.078-4.352 1.246-3.323.492-6.69.664-10.043.812a643.89 643.89 0 01-10.57.371c-3.052.084-9.824 1.361-12.648.084-2.2-.996-2.149-2.101-1.25-2.958-.545-1.196-.455-3.156-.572-4.097-.489-3.941-.783-7.832-.79-11.807-.014-7.787.002-15.873 2.156-23.41-.863-.378-1.383-.935-1.381-1.737.012-4.767 17.498-3.629 21.044-3.723 4.358-.114 8.717-.129 13.076-.105 2.88.015 6.776-.607 9.645.06 5.584 1.296 5.23 10.87 5.345 15.5.206 8.305.086 17.035-.588 25.32-.233 2.86-2.314 6.486-4.688 2.543-1.324-2.199-.734-7.335-.735-9.764-.007-8.636 1.346-17.532.052-26.124-.425-2.816-.33-3.007-3.196-2.947-2.273.047-4.546.122-6.819.17-4.628.097-9.259.16-13.886.33-1.757.065-8.071 1.168-12.996 1.164.003.039.007.078.008.119.068 3.329-1.565 7.37-1.787 10.873-.534 8.425.104 17.047-.685 25.43-.024.254-.037.525-.052.797zM547.544 168.156c-.573-.584-1.089-1.442-1.42-2.513-1.187-3.844-1.3-7.991-1.388-11.977-.188-8.519-.094-17.053-.145-25.574-.773-1.038-.314-2.225.65-3.053 2.605-2.236 10.111-1.669 13.417-1.844 4.76-.252 9.522-.31 14.286-.327 5.046-.026 10.098.065 15.141.22 1.87.058 14.88.385 9.065 3.539-.333.18-.707.331-1.116.457.241 1.433.27 2.912.232 3.625-.247 4.535-.353 9.079-.555 13.616a1538.7 1538.7 0 00-.613 15.196c-.092 2.679.824 8.907-1.295 10.841-1.43 1.304-2.405 1.043-3.063.157-5.073 1.473-16.78.524-18.912.525-3.82.002-24.568 2.458-24.603-1.962-.002-.343.11-.65.319-.926zm3.37-1.563c5.789-1.236 16.58-.41 18.851-.419 4.23-.016 8.46.042 12.686.211 1.317.053 4.539-.2 7.083.081-.022-.23-.038-.44-.047-.622-.23-4.561.02-9.17.168-13.731.148-4.598.374-9.191.551-13.787.092-2.364-.505-7.3.141-10.702-3.072-.058-6.293-.43-8.365-.43-4.864 0-9.725-.055-14.589.041-5.253.104-10.562.166-15.778.859-.286.038-.63.111-1.01.2.794 3.321-.17 8.663-.173 11.74-.01 8.623.308 17.198.501 25.775.006.281 0 .542-.018.784z" fill="#89C5CC"/><path d="M498.708 169.821c-3.128 1.827-1.441 9.135-.358 11.663 1.782 4.156 5.396 7.408 9.295 9.566 7.883 4.36 19.245 3.202 25.206 10.762.061.078 2.122 2.118 2.59-.524.386-2.168-3.46-5.479-4.951-6.566-4.24-3.09-9.676-4.086-14.579-5.63-5.229-1.646-10.967-4.682-13.159-10.072-.776-1.91.704-11.986-4.044-9.199M570.203 173.335c-2.866.79-.97 4.734-.975 6.708-.005 2.464-.793 5.042-2.311 7.008-3.85 4.985-11.39 5.732-17.041 7.162-4.104 1.038-13.923 3.265-14.307 8.815-.43 6.199 8.24-1.344 8.971-1.653 8.103-2.972 18.585-3.546 24.839-10.089 2.581-2.7 4.107-6.304 4.35-10.025.136-2.094.16-8.933-3.526-7.926" fill="#C1DEE2"/><path d="M531.817 207.299c11.929-3.143 23.04 5.215 24.446 17.239 1.484 12.689-8.079 22.904-20.69 23.464-11.095.492-24.517-7.451-24.588-19.689-.067-11.468 10.908-18.405 20.832-21.014zm5.741 8.553c-2.04 1.19-2.414-1.896-3.858-2.303-1.45-.408-3.78 1.117-4.989 2.006-2.05 1.51-7.732 10.301-10.485 5.527-8.356 14.43 12.476 25.227 24.322 19.767 13.01-5.997 10.478-27.922-4.917-28.036.645.877 1.227 2.277-.073 3.04z" fill="#89C5CC"/><path d="M526.713 224.474c0 2.633 4.156 2.633 4.156 0 0-2.602-4.156-2.713-4.156 0M534.026 223.98c0 3.225 5.095 3.225 5.095 0 0-3.187-5.095-3.324-5.095 0M528.793 231.494c-4.167 2.45 7.747 7.32 8.218 2.344.203-2.147-1.876-1.568-3.262-1.726-1.326-.151-3.699-1.35-4.956-.618" fill="#89C5CC"/><path d="M526.986 248.88c.18 6.258.094 12.513 1.28 18.685.226 1.172.383 5.424 1.31 6.295 2.278 2.142 2.316-1.964 2.404-3.537.316-5.635-.275-11.446-.406-17.093-.028-1.216.294-3.733-.28-4.91-.91-1.868-4.397-2.422-4.308.56M522.53 243.804c-9.133 10.251-21.71 9.496-34.38 10.394-6.695.474-13.464 1.448-18.85 5.778-2.506 2.014-4.666 4.538-6.118 7.413-.635 1.257-3.644 8.51.876 6.79 1.603-.61 3.181-5.407 4.218-6.826 1.975-2.702 4.502-4.933 7.533-6.383 5.847-2.797 12.829-2.75 19.168-3.105 6.628-.37 13.74-.717 19.833-3.599 2.865-1.356 5.554-3.047 7.86-5.225.824-.78 2.592-2.102 2.723-3.293.15-1.361-1.158-3.854-2.863-1.944" fill="#C1DEE2"/><path d="M476.424 275.267c-8.58.287-17.148.634-25.715 1.176-1.756.112-7.61-.243-6.118 3.354 1.194 2.884 8.333.977 10.695.837 8.927-.53 17.891-.714 26.8-1.517 2-.18 11.046-.109 7.311-3.655-1.777-1.688-10.518-.278-12.973-.195" fill="#89C5CC"/><path d="M439.143 279.405c-2.704 3.552-1.462 12.184-1.257 16.453.198 4.138-.606 11.703 4.795 12.345-1.715-.225 1.302.104 1.793.13 1.096.059 2.198.078 3.296.09 2.536.028 5.074-.006 7.61-.057 5.746-.115 11.506-.282 17.243-.6 2.412-.133 15.497-.022 16.015-2.527.662-3.202-11.884-1.39-14.13-1.288-5.469.25-10.946.303-16.42.375-2.714.036-5.43.063-8.143.01-1.12-.022-5.557.438-6.238-.31-.58-.636-.127-6.486-.14-7.38-.04-2.918-.036-5.842.068-8.757.07-1.963 1.131-5.698.266-7.542-.841-1.793-3.293-2.405-4.758-.942" fill="#89C5CC"/><path d="M483.319 279.571c.156 6.497.205 13.126 1.74 19.48.51 2.115 1.226 6.476 3.35 7.57 2.23 1.15 4.155-.49 4.3-2.7.184-2.777-1.303-6.424-1.608-9.274-.356-3.325-.563-6.654-.685-9.995-.092-2.513.671-6.28-1.724-7.901-2.152-1.456-5.443.01-5.373 2.82M500.392 277.985c-2.668 2.657-1.476 11.072-1.142 14.487.244 2.502 2.982 14.806 7.084 8.39 1.814-2.838-.491-10.343-.475-13.653.01-2.108.757-4.773.397-6.798-.476-2.676-3.444-4.844-5.864-2.426" fill="#89C5CC"/><path d="M563.155 299.947c.588.636.848 1.542.467 2.43-.918 2.128-4.293 1.669-6.126 1.821-6.12.51-12.266.85-18.407.904-5.933.053-11.867-.1-17.8-.041-4.942.048-10.09 1.05-14.987.85-2.044-.085-4.227-.754-3.71-3.397.46-2.343 2.819-2.362 4.742-2.558 5.792-.59 11.588-.798 17.41-.777 12.23.042 24.452-.021 36.683-.085.502.041.976.233 1.366.526-.64-.776-.332-1.926-.452-3.049-.321-3.025-.528-6-1.102-9.025-.46-2.42-.805-6.53-3.047-8.052-2.448-1.662-7.882-1.113-10.804-1.188-7.861-.203-15.768.355-23.594 1.067-3.568.324-7.181.572-10.71 1.212-1.964.358-7.729 3.242-9.298 1.467-3.779-4.274 12.826-6.028 15.08-6.261 8.015-.827 16.039-1.447 24.097-1.524 5.442-.043 14.755-.506 18.756 3.958 2.403 2.681 3.246 7.098 4.184 10.443.72 2.57 2.674 7.203 1.286 9.856-.628 1.2-1.64 2.225-3.174 1.8a2.88 2.88 0 01-.86-.377z" fill="#89C5CC"/><path d="M604.13 266.061c.35.448.35.448 0 0m-54.234-26.476c-4.867 2.86 4.142 11.256 6.437 12.554 5.164 2.922 12.26 3.362 18.027 4.184 7.298 1.04 15.24 1.423 22.253 3.815 2.99 1.02 4.888 2.61 6.845 5.053.991 1.238 3.378 6.576 5.553 5.312 4.377-2.544-7.418-13.222-10.017-14.37-5.909-2.61-12.893-3.341-19.21-4.354-5.874-.943-11.874-1.644-17.603-3.306-3.15-.913-5.39-2.387-7.205-5.208-1.132-1.758-2.06-5.447-5.08-3.68" fill="#C1DEE2"/><path d="M576.01 301.394c-1.456-2.79-2.125-8.153-2.255-9.211-.56-4.562-.602-9.07-.525-13.661.045-2.52 2.93-3.722 4.798-2.308 2.5-1.047 6.729-1.204 9.002-1.433 3.734-.378 7.5-.518 11.246-.742 8.744-.523 17.479-1.465 26.239-1.66 2.621-.054 6.132-.29 8.228 1.644 2.387 2.203 2.863 7.669 3.578 10.613.776 3.198 1.704 6.452 2.03 9.733.075.769.28 2.089.188 3.276 1.092.149 1.744 1.207 1.633 2.363-.204 2.145-3.176 2.438-4.915 2.777-5.783 1.13-11.965.872-17.827 1.038-12.265.345-25.381 2.327-37.6 1.147-2.091-.202-4.338-.94-3.82-3.576zm4.415-2.525c.486-.004.966.005 1.413-.002a883.468 883.468 0 0018.498-.532c6.287-.241 12.574-.51 18.865-.583 5.001-.057 10.152.375 15.188.18-1.082-2.834-.918-7.297-1.496-10.233-.573-2.914-.79-6.371-1.963-9.109-1.319-3.079-2.466-2.367-5.9-2.133-3.533.24-7.06.576-10.589.867-7.756.637-15.519 1.041-23.28 1.582-4.026.28-7.878 1.43-11.816 1.88-.059 1.405-.257 2.823-.235 3.849.066 3.025.364 6.028.627 9.04.107 1.226.613 3.34.688 5.194z" fill="#89C5CC"/></g><g><path d="M195.435 184.394c-6.17-5.436-10.822-12.505-11.415-21.076-1.71-24.695 33.319-24.133 41.72-12.728 8.401 11.404 12.009 42.821 3.703 46.238-3.313 1.362-10.936.236-19.012-3.176l9.294 32.199-27.611 3.88 3.32-45.337z" fill="#B28B67"/><path d="M235.568 131.762c-.853-1.916-2.63-3.409-4.775-3.625a5.6 5.6 0 00-1.56.065c-.184.033-.229.094-.334-.023-.077-.087-.112-.32-.154-.428a8.358 8.358 0 00-.457-.986c-.595-1.084-1.466-1.996-2.464-2.726-1.868-1.366-4.243-2.157-6.578-2.032-1.278.068-2.503.448-3.64 1.024-.587.298-1.15.645-1.692 1.018-.164.112-.674.62-.854.618-.199-.004-.658-.43-.833-.528-2.167-1.216-4.667-1.463-7.102-1.102-2.75.407-5.38.916-7.441 2.904a15.52 15.52 0 00-1.228 1.341c-.202.247-.396.5-.577.762-.11.158-.216.318-.317.482-.17.277-.126.354-.438.221-1.198-.51-2.522-.643-3.79-.304-.752.2-1.464.534-2.13.934-.226.136-.726.622-.982.662-.254.04-.857-.261-1.132-.32a8.887 8.887 0 00-4.49.215c-1.5.464-2.924 1.284-4.107 2.308-.569.492-1.052 1.017-1.406 1.68-.153.287-.285.586-.466.857-.106.158-.335.338-.377.526.025-.113-1.787-.53-1.955-.549a4.611 4.611 0 00-2.578.462c-1.52.745-2.724 2.104-3.682 3.459a11.643 11.643 0 00-1.23 2.23c-.156.375-.294.758-.415 1.147-.059.188-.083.416-.17.59-.114.225-.208.243-.452.368-1.24.637-2.32 1.571-3.078 2.735a7.826 7.826 0 00-1.238 3.949c-.003.082.035.415-.006.465-.057.069-.322.08-.42.105-.338.088-.67.196-.995.322-.6.233-1.173.532-1.704.893-2.072 1.406-3.375 3.68-3.83 6.095-.476 2.536-.072 5.307 1.239 7.545.211.361.451.707.721 1.029.166.197.21.191.154.43-.063.267-.207.537-.289.8-.266.859-.412 1.75-.457 2.645-.074 1.469.001 2.991.475 4.394a6.35 6.35 0 00.95 1.824 5.56 5.56 0 001.144 1.12c.085.062.191.112.266.184.182.175.191.008.153.309-.055.42-.251.855-.35 1.27-.103.428-.189.86-.262 1.293a18.25 18.25 0 00-.272 2.657c-.036 1.71.262 3.485 1.274 4.907a5.047 5.047 0 001.657 1.48c.32.179.661.324 1.013.432.18.057.401.06.501.212.108.163.033.528.032.727-.005 1.735.123 3.538.866 5.133.684 1.469 1.907 2.679 3.373 3.388 2.844 1.375 6.335.784 8.87-.993a9.37 9.37 0 001.784-1.623c1.797 1.81 4.902 1.308 7.032.421 2.654-1.105 4.598-3.319 5.52-5.997 2.038 1.86 5.597.664 6.484-1.79.217-.601.305-1.242.304-1.878 0-.334-.076-.66-.088-.99-.014-.422.208-.864.312-1.287.202-.824.283-1.658.173-2.5-.058-.44-.174-.861-.277-1.291-.093-.387-.035-.768-.027-1.164-.69.214-1.578.146-2.272.036-.682-.108-1.368-.548-1.896-.963-1.228-.965-2.087-2.335-2.739-3.728-1.43-3.055-1.567-6.944 1.421-9.151 1.392-1.029 5.907-1.66 7.758-1.51 1.947.16 4.667 3.995 4.827 4.369.1.231.108.533.353.662.539.284 1.26-.44 1.578-.793.55-.609.896-1.365 1.181-2.121a23.856 23.856 0 001.31-5.128c.186-1.344.234-2.71.537-4.036.303-1.32.9-2.546 1.972-3.42 1.167-.951 2.572-1.564 3.905-2.246 1.32-.676 2.601-1.455 3.534-2.626.205-.258.401-.529.555-.82.12-.23.213-.65.424-.814.327-.256.922.206 1.257.357 1.654.745 3.109 1.903 4.336 3.22 1.22 1.309 2.251 2.589 3.157 4.115.672 1.132 1.202 2.627 2.225 3.489.456.384 3.428.238 4.324-.28.897-.517 1.822-1.665 2.053-2.335.236-.685.216-1.4-.022-2.08-.14-.4-.362-.762-.51-1.154-.125-.33-.24-.64-.451-.929a2.437 2.437 0 00-1.674-.98 7.096 7.096 0 001.319-2.42c.282-.918.477-2.013.441-2.972-.03-.78-.263-1.558-.779-2.158-.541-.63-1.391-.971-2.132-1.308a12.502 12.502 0 002.256-3.252c1.125-2.315 1.63-5.105.554-7.525z" fill="#191847"/><path fill="#C5CFD6" d="M158.789 369.51h89.908l11.781 143H126.642z"/><path fill-opacity=".1" fill="#000" d="M158.789 369.51h27.652l16.55 143h-76.349z"/><path d="M351.086 344.977c9.582-5.711 25.658 1.627 25.647 9.796-.033 24.44-22.502 139.631-23.676 146.913-1.173 7.282-13.74 9.205-14.472.024-1.165-14.61-3.328-65.183-1.164-88.591a1213.8 1213.8 0 012.804-27.075c-11.791 21.137-30.026 51.399-54.705 90.787l-13.398-6.076c10.521-34.409 19.148-58.7 25.88-72.875 11.53-24.27 22.34-45.055 26.889-52.376 7.156-11.516 19.613-7.498 26.195-.527z" fill="#B28B67"/><path d="M273.08 451.646l45.984-108.134c11.016-17.59 41.902 3.58 38.145 13.782-8.529 23.163-51.905 98.15-54.446 105.051l-29.683-10.699z" fill="#1F28CF"/><path d="M270.888 463.488c-3.002 2.425-4.943 4.4-5.822 5.924-1.037 1.796-2.247 4.592-3.631 8.387l56.853 32.824c4.263-3.973 4.915-7.07 1.954-9.293a367.749 367.749 0 01-7.331-5.622l-19.809-27.037a1 1 0 00-1.413-.204l-4.18 3.19c-3.731-.343-6.518-1.046-8.36-2.11-1.549-.893-3.339-2.78-5.37-5.657a2 2 0 00-2.891-.402zM335.77 495.394c-1.386 3.602-2.08 6.282-2.08 8.042 0 2.074.35 5.1 1.05 9.078h65.648c1.706-5.572.72-8.58-2.955-9.025a367.749 367.749 0 01-9.16-1.203l-30.673-13.51a1 1 0 00-1.326.53l-2.025 4.853c-3.402 1.568-6.167 2.353-8.294 2.353-1.789 0-4.282-.739-7.48-2.215a2 2 0 00-2.704 1.097z" fill="#E4E4E4"/><path d="M379.956 363.081c0 30.68-14.677 102.244-14.687 109l-31.579.024c4.622-63.856 6.261-96.128 4.917-96.816-2.016-1.032-82.656 7.992-106.84 7.992-34.876 0-49.303-21.831-50.474-62.273h69.086c14.067 1.494 87.44 16.185 114.689 21.235 11.665 2.162 14.888 12.387 14.888 20.838z" fill="#2B44FF"/><g><path d="M288.56 266.916l44.495-12.535c8.367-6.3 16.237-10.876 23.608-13.726 2.136-.363 5.657-.067 1.167 4.866s-8.99 10.325-7.769 12.449c1.222 2.124 5.831.622 7.101 3.975.846 2.235-6.772 3.688-22.856 4.36l-34.764 19.7-10.982-19.09zm-141.025 30.48l25.17-3.442C153.806 359.637 143.971 394.019 143.2 397.1c-1.737 6.933 5.293 16.132 8.453 21.163-7.345 4.592-8.327-8.453-17.567-2.486-8.435 5.447-14.233 13.983-25.557 9.045-1.392-.607-3.213-3.374-.145-6.167 7.642-6.96 18.404-18.771 19.582-22.327 1.608-4.849 8.13-37.826 19.57-98.932z" fill="#997659"/><path d="M205.279 208.272l19.88-1.462c10.993 43.014 41.295 66.9 99.143 49.243l15.768 55.166c-54.295 14.886-105.886-.34-124.211-58.618-4.744-15.087-9.035-30.878-10.58-44.33z" fill="#AFB9C5"/><path d="M194.76 203.937l30.8 2.61c7.183 51.106 28.116 81.415 41.784 117.81l-80.6 11.328c.689 13.143 1.867 26.586 3.43 40.343l-60.35 8.482c3.494-74.368 24.482-134.473 62.963-180.315l1.955-.274.018.016z" fill="#C5CFD6"/><path d="M189.213 260.989c2.399 32.138 7.036 56.269 13.912 72.394l-16.381 2.302c-1.366-26.037-.813-50.897 2.47-74.696z" fill-opacity=".1" fill="#000"/></g><g><path d="M508.76 89.93c4.553-6.846 7.217-14.879 5.571-23.311-4.74-24.297-38.43-14.687-43.593-1.497-5.163 13.19-.516 44.47 8.391 45.62 3.552.46 10.624-2.6 17.542-7.988l-.643 33.508 27.674-3.398-14.942-42.933z" fill="#B28B67"/><path d="M491.511 72.168c.74 14.786-1.162 22.458-5.707 23.016-6.818.837-13.13-2.751-16.122-2.384-2.181.268-1.362 2.918.33 4.75 1.397 1.512 7.401 2.397 7.717 4.968.315 2.57-4.518 1.145-4.33 2.67.31 2.521.085 7.361 4.492 6.82 4.46-.547 17.048-3.732 18.432-10.574.893-4.417.728-13.32-.495-26.711a7.09 7.09 0 01.819-.15c3.82-.47 7.296 2.227 7.762 6.022a6.88 6.88 0 01-1.48 5.171 105.056 105.056 0 006.31 6.339c7.16-5.55 11.236-19.727 2.096-31.742-2.865-6.083-8.006-8.89-13.78-9.777-4.75-1.323-9.469-.959-13.292.654-7.683 1.614-14.328 4.817-16.122 6.455.897 7.301 2.587 9.293 14.73 7.608 3.182 1.201 5.812 3.619 8.64 6.865z" fill="#191847"/><path fill="#1F28CF" d="M543.093 230.757l-55.935 147.456-39.206 108.682h-22.355l53.893-256.138z"/><path d="M556.918 230.757c.608 50.595.168 118.713 1.585 121.867.944 2.103 30.32 26.058 88.127 71.868l-11.523 19.52c-68.63-44.093-104.7-69.077-108.208-74.951-5.264-8.812-31.705-89.9-45.462-138.304h75.48z" fill="#2B44FF"/><path d="M666.56 437.295l-19.248-14.631-15.712 18.724c-1.283 14.053-6.017 29.833-14.202 47.34l3.524 2.956 28.43-33.881 7.965-13.07 1.761 1.479 7.482-8.917zM450.027 507.397l-1.164-24.15H424.42c-11.59 8.05-26.721 14.567-45.393 19.55v4.6h44.23l15.13-2.3v2.3h11.64z" fill="#191847"/><g><path d="M435.11 209.249l-43.975-13.205c-8.204-6.388-15.942-11.058-23.214-14.012-2.115-.398-5.616-.167-1.24 4.798 4.375 4.965 8.754 10.384 7.505 12.465-1.25 2.082-5.801.512-7.118 3.81-.878 2.198 6.663 3.773 22.623 4.724l34.192 20.127 11.227-18.707zm169.306-15.664l-23.022 7.58c29.162 41.32 44.767 63.202 46.814 65.645 4.608 5.496 2.337 16.884 1.71 22.812 8.616.922 3.764-11.284 14.688-9.953 9.971 1.216 18.933 6.376 26.934-3.05.984-1.16 1.403-4.456-2.58-5.63-9.924-2.929-24.784-8.868-27.406-11.56-3.576-3.672-15.955-25.62-37.138-65.844z" fill="#B28B67"/><path d="M505.844 116.052l-10.167-.486c-19.104 23.707-21.747 75.349-35.379 83.815-12.888 8.005-33.011 4.261-57.052-1.179l-5.117 16.625c23.701 20.07 70.62 33.725 87.345 20.587 26.74-21.003 25.753-84.175 20.37-119.362z" fill="#DB2721"/><path d="M564.618 235.884l-88.104 10.818c-4.026.494-3.981-5.414-3.76-8.42 2.56-34.687 24.297-74.408 18.378-122.611l24.924-7.107c25.172 31.234 37.553 71.974 48.562 127.32z" fill="#DDE3E9"/><path d="M569.196 200.52c21.939 30.2 39.9 51.676 53.884 64.43l18.023-5.886c-20.957-72.332-62.092-122.565-123.408-150.7l-.29.035-9.772 1.2c-13.263 80.588-13.189 133.19.223 157.806l79.307-9.737c-3.579-18.777-10.06-38.304-17.967-57.148z" fill="#FF4133"/></g></g></g></g></svg>