<svg width="704" height="592" xmlns="http://www.w3.org/2000/svg"><g fill="none" fill-rule="evenodd"><g opacity=".6"><path d="M620.569 438.91c7.72 56.87-179.5 93.964-340.643 68.076C118.783 481.1 44.857 380.006 121.753 326.14c76.895-53.867 491.096 55.899 498.816 112.77z" opacity=".1" fill="#DDE3E9"/></g><g transform="translate(154.5 46.624)"><rect fill="#F2F2F2" width="159" height="302" rx="8"/><circle fill="#FFF" cx="79" cy="268" r="15"/><g transform="translate(64 16)" fill="#FFF"><circle cx="2" cy="2" r="2"/><rect x="9" width="21" height="4" rx="2"/></g><g transform="translate(14 28)"><rect fill="#FFF" width="131" height="54" rx="4"/><g transform="translate(39 16.2)" fill="#DDE3E9"><rect width="73" height="8.1" rx="3"/><rect y="13.5" width="49" height="8.1" rx="3"/></g><circle fill="#C5CFD6" cx="21" cy="27" r="12"/></g><g transform="translate(14 90)"><rect fill="#FFF" width="131" height="42" rx="4"/><g transform="translate(39 12.6)" fill="#DDE3E9"><rect width="73" height="6.3" rx="3"/><rect y="10.5" width="49" height="6.3" rx="3"/></g><circle fill="#C5CFD6" cx="21" cy="21" r="12"/></g><g transform="translate(14 140)"><rect fill="#FFF" width="131" height="42" rx="4"/><g transform="translate(39 12.6)" fill="#DDE3E9"><rect width="73" height="6.3" rx="3"/><rect y="10.5" width="49" height="6.3" rx="3"/></g><circle fill="#AFB9C5" cx="21" cy="21" r="12"/></g><g transform="translate(14 190)"><rect fill="#FFF" width="131" height="42" rx="4"/><g transform="translate(39 12.6)" fill="#DDE3E9"><rect width="73" height="6.3" rx="3"/><rect y="10.5" width="49" height="6.3" rx="3"/></g><circle fill="#C5CFD6" cx="21" cy="21" r="12"/></g></g><g transform="translate(164.1 69.259)"><rect fill="#DDE3E9" x="48" width="159" height="302" rx="8"/><circle fill="#FFF" cx="127" cy="268" r="15"/><g transform="translate(112 16)" fill="#FFF"><circle cx="2" cy="2" r="2"/><rect x="9" width="21" height="4" rx="2"/></g><g transform="translate(62 28)"><rect fill="#FFF" width="131" height="54" rx="4"/><g transform="translate(9 16.2)" fill="#DDE3E9"><rect width="73" height="8.1" rx="3"/><rect y="13.5" width="49" height="8.1" rx="3"/></g><g transform="translate(110 20)"><circle fill="#DDE3E9" cx="7" cy="7" r="7"/><circle fill="#F2F2F2" cx="7" cy="7" r="3"/></g></g><g transform="translate(62 90)"><rect fill="#FFF" width="131" height="42" rx="4"/><g transform="translate(39 12.6)" fill="#DDE3E9"><rect width="73" height="6.3" rx="3"/><rect y="10.5" width="49" height="6.3" rx="3"/></g><circle fill="#C5CFD6" cx="21" cy="21" r="12"/></g><g transform="translate(62 140)"><rect fill="#FFF" width="131" height="42" rx="4"/><g transform="translate(9 12.6)"><rect fill="#DDE3E9" width="73" height="6.3" rx="3"/><rect fill="#AFB9C5" y="10.5" width="49" height="6.3" rx="3"/></g><g transform="translate(110 14)"><circle fill="#DDE3E9" cx="7" cy="7" r="7"/><circle fill="#F2F2F2" cx="7" cy="7" r="3"/></g></g><g transform="translate(62 190)"><rect fill="#FFF" width="131" height="42" rx="4"/><g transform="translate(39 12.6)" fill="#DDE3E9"><rect width="73" height="6.3" rx="3"/><rect y="10.5" width="49" height="6.3" rx="3"/></g><circle fill="#C5CFD6" cx="21" cy="21" r="12"/></g></g><g transform="translate(242.5 88.176)"><rect fill="#F2F2F2" width="335" height="346" rx="8"/><rect fill="#FFF" x="249" y="43" width="70" height="81" rx="8"/><g transform="translate(259 58)" fill="#DDE3E9"><circle cx="25" cy="16" r="16"/><rect y="36" width="50" height="6" rx="3"/><rect x="8" y="46" width="34" height="6" rx="3"/></g><path d="M8 0h319a8 8 0 018 8v19H0V8a8 8 0 018-8z" fill="#C5CFD6"/><g transform="translate(9 10)" fill="#F2F2F2"><circle cx="4" cy="4" r="4"/><circle cx="16" cy="4" r="4"/><circle cx="28" cy="4" r="4"/></g><g transform="translate(249 132)"><rect fill="#FFF" width="70" height="194" rx="8"/><g transform="translate(18 18)"><rect fill="#DDE3E9" width="34" height="26" rx="4"/><rect fill="#AFB9C5" y="34" width="34" height="25" rx="4"/><rect fill="#DDE3E9" y="67" width="34" height="25" rx="4"/><rect fill="#DDE3E9" y="133" width="34" height="25" rx="4"/><rect fill="#C5CFD6" y="100" width="34" height="25" rx="4"/></g></g><g transform="translate(16 44)"><rect fill="#FFF" width="225" height="47" rx="4"/><g transform="translate(9 14.1)" fill="#DDE3E9"><rect width="167" height="7.05" rx="3"/><rect y="11.75" width="112.096" height="7.05" rx="3"/></g><g transform="translate(193.954 16.5)"><circle fill="#DDE3E9" cx="7" cy="7" r="7"/><circle fill="#F2F2F2" cx="7" cy="7" r="3"/></g></g><g transform="translate(16 99)"><rect fill="#FFF" width="225" height="39" rx="4"/><g transform="translate(9 11.7)" fill="#DDE3E9"><rect width="167" height="5.85" rx="2.925"/><rect y="9.75" width="112.096" height="5.85" rx="2.925"/></g><g transform="translate(193.954 12.5)"><circle fill="#DDE3E9" cx="7" cy="7" r="7"/><circle fill="#F2F2F2" cx="7" cy="7" r="3"/></g></g><g transform="translate(16 146)"><rect fill="#FFF" width="225" height="39" rx="4"/><g transform="translate(9 11.7)" fill="#DDE3E9"><rect width="167" height="5.85" rx="2.925"/><rect y="9.75" width="112.096" height="5.85" rx="2.925"/></g><g transform="translate(193.954 12.5)"><circle fill="#DDE3E9" cx="7" cy="7" r="7"/><circle fill="#AFB9C5" cx="7" cy="7" r="3"/></g></g><g transform="translate(16 287)"><rect fill="#FFF" width="225" height="39" rx="4"/><g transform="translate(9 11.7)" fill="#DDE3E9"><rect width="167" height="5.85" rx="2.925"/><rect y="9.75" width="112.096" height="5.85" rx="2.925"/></g><g transform="translate(193.954 12.5)"><circle fill="#DDE3E9" cx="7" cy="7" r="7"/><circle fill="#F2F2F2" cx="7" cy="7" r="3"/></g></g><g transform="translate(16 240)"><rect fill="#FFF" width="225" height="39" rx="4"/><g transform="translate(9 11.7)" fill="#DDE3E9"><rect width="167" height="5.85" rx="2.925"/><rect y="9.75" width="112.096" height="5.85" rx="2.925"/></g><g transform="translate(193.954 12.5)"><circle fill="#DDE3E9" cx="7" cy="7" r="7"/><circle fill="#F2F2F2" cx="7" cy="7" r="3"/></g></g><g transform="translate(16 193)"><rect fill="#FFF" width="225" height="39" rx="4"/><g transform="translate(9 11.7)" fill="#DDE3E9"><rect width="167" height="5.85" rx="2.925"/><rect y="9.75" width="112.096" height="5.85" rx="2.925"/></g><g transform="translate(193.954 12.5)"><circle fill="#DDE3E9" cx="7" cy="7" r="7"/><circle fill="#F2F2F2" cx="7" cy="7" r="3"/></g></g></g><g transform="translate(469.8 41.582)"><rect fill="#DDE3E9" y="32" width="6" height="25" rx="3"/><rect fill="#DDE3E9" x="14" y="16" width="6" height="41" rx="3"/><rect fill="#DDE3E9" x="28" y="8" width="6" height="49" rx="3"/><rect fill="#DDE3E9" x="42" y="16" width="6" height="41" rx="3"/><rect fill="#C5CFD6" x="56" width="6" height="57" rx="3"/></g><path d="M78.4 311.927c0-11.139 9.002-20.256 20-20.256v20.256l-13.668 14.744c-3.888-3.605-6.332-8.893-6.332-14.744z" fill="#F2F2F2"/><path d="M97.87 311.67h20.198c0 5.222-2.13 10.114-5.497 13.669-3.703 3.888-8.976 6.332-14.7 6.332-5.273 0-10.099-2.11-13.803-5.443l13.803-14.557z" fill="#AFB9C5"/><path d="M118.4 311.67c0-10.997-9.002-20-20-20v20h20zm-30-20l8 18-18-8c1.78-4.665 5.777-8.22 10-10z" fill="#C5CFD6"/><path d="M604.566 320.59a10.507 10.507 0 01-7.67 3.322c-5.818 0-10.534-4.701-10.534-10.5 0-5.8 4.716-10.5 10.533-10.5v-19.5c-16.55 0-30.095 13.503-30.095 30s13.546 30 30.095 30c8.693 0 16.55-3.666 21.905-9.498l-14.234-13.323z" fill="#F2F2F2"/><path d="M596.8 283.412v19.5c5.799 0 10.5 4.7 10.5 10.5h19.5c0-16.497-13.503-30-30-30z" fill="#AFB9C5"/><path d="M606.897 313.412c0 3.407-1.605 6.435-4.097 8.39l12.262 15.61c7.137-5.588 11.738-14.251 11.738-24h-19.903z" fill="#C5CFD6"/><g><path d="M451.651 80.374a8.095 8.095 0 01-5.9 2.547c-4.476 0-8.103-3.605-8.103-8.05 0-4.446 3.627-8.05 8.102-8.05V51.87c-12.73 0-23.15 10.352-23.15 23 0 12.647 10.42 23 23.15 23 6.687 0 12.73-2.811 16.85-7.282l-10.949-10.215z" fill="#F2F2F2"/><path d="M445.6 51.87v14.95a8.05 8.05 0 018.05 8.05h14.95c0-12.647-10.352-23-23-23z" fill="#AFB9C5"/><path d="M453.673 74.87a7.98 7.98 0 01-3.073 6.294l9.196 11.707c5.354-4.192 8.804-10.688 8.804-18h-14.927z" fill="#C5CFD6"/></g><g transform="matrix(-1 0 0 1 611.8 393.518)"><path d="M71.007 76.986l-.014.032c.006-.01.014-.05.014-.032" fill="#C5CFD6"/><path d="M70.998 77.001l-.002.01c0-.01.018-.04.002-.01" fill="#C5CFD6"/><path d="M71.067 76.832c-.014.04-.032.078-.048.118l.024-.056c-.208.52-.076.182.024-.062" fill="#C5CFD6"/><path d="M71.022 76.953l-.024.056c-.058.112.024-.056.024-.056M71 77.001v-.002zM70.999 77.002l.002-.004-.002.004M70.99 77.016c-.012.024.056-.092 0 0" fill="#C5CFD6"/><path d="M70.998 77.002l.004-.004c-.002.002-.002.004-.004.004" fill="#C5CFD6"/><rect fill="#DDE3E9" width="142" height="94" rx="4"/><path fill="#AFB9C5" d="M52.726 27L11.67 94h82.11z"/><path fill="#C5CFD6" d="M95.056 44.946L58.76 94h72.59z"/><circle fill="#FFF" cx="110.5" cy="31.5" r="13.5"/></g><g><path d="M166.262 148.49c-4.608-5.409-7.726-12.037-7.205-19.465 1.501-21.4 31.292-16.692 37.086-5.891 5.795 10.801 5.107 38.199-2.383 40.13-2.986.77-9.349-1.117-15.825-5.02L182 187h-24l8.262-38.51z" fill="#B28B67"/><path d="M179.135 131.389c.919 12.797 3.35 19.196 7.29 19.196 5.914 0 10.93-3.754 13.525-3.754 1.89 0 1.469 2.367.215 4.121-1.034 1.448-6.071 2.844-6.071 5.088 0 2.245 3.98.508 3.98 1.84 0 2.201.699 6.341-3.123 6.341-3.867 0-14.956-1.41-16.857-7.15-1.226-3.704-2.019-11.38-2.378-23.029a6 6 0 00-4.908 10.25 90.97 90.97 0 01-4.728 6.12c-6.698-4.02-11.668-15.783-5.12-27.084 1.81-5.536 5.908-8.493 10.747-9.866 3.92-1.64 7.99-1.824 11.425-.841 6.734.577 12.747 2.63 14.451 3.85 0 6.375-1.235 8.267-11.786 8.1-2.593 1.37-4.586 3.727-6.662 6.818zM150 270l36.255 127.227L212.707 491H232l-28.109-221z" fill="#191847"/><path d="M140.304 270c-.838 65.574-3.698 101.34-4.578 107.298-.88 5.958-14.194 43.858-39.94 113.702h19.987c32.776-67.003 51.073-104.904 54.89-113.702C174.478 368.5 186.258 332.734 204 270h-63.696z" fill="#2F3676"/><path d="M94 509l1-21h21c9.958 7 22.958 12.667 39 17v4h-38l-13-2v2H94zM210 509l1-21h21c9.958 7 22.958 12.667 39 17v4h-38l-13-2v2h-10z" fill="#191847"/><g><path d="M234.359 253.61l30.186 25.592c8.468 2.932 15.476 6.334 21.024 10.205 1.28 1.342 2.757 3.981-2.885 3.148-5.642-.833-11.614-1.455-12.532.425-.918 1.88 2.353 4.434.588 6.934-1.176 1.667-5.855-3.046-14.034-14.137l-30.597-15.27 8.25-16.897zM97.667 242.536l17.712 2.572c-19.012 41.25-29.205 63.065-30.578 65.446-3.09 5.356.544 14.686 1.965 19.625-7.179 2.073-4.886-9.017-13.963-6.251-8.285 2.525-15.121 8.249-23.327 1.442-1.008-.837-1.858-3.573 1.348-5.167 7.989-3.972 19.717-11.24 21.54-13.92 2.487-3.652 10.92-24.901 25.303-63.747z" fill="#B28B67"/><path d="M171.695 170.332l10.975-3.63c14.887 37.19 37.09 73.174 74.187 103.568l-9.173 15.827c-32.603-19.205-63.465-34.124-75.989-62.942-4.203-9.672-.343-41.258 0-52.823z" fill="#C5CFD6"/><path d="M134 275c31.438 3.333 56.184 3.333 74.236 0 2.237-.413 2.59-4.158 1.552-6.699-16.152-39.577-27.228-74.11-27.228-101.598-2.963 1.494-8.15 1.718-15.56.671-19.914 28.329-29.067 60.832-33 107.626z" fill="#323337"/><path d="M162.05 165h8.298c1.933 11.365 8.028 165.263 26.843 215.606H95.385c2.207-46.119 19.618-101.519 37.255-147.878-15.596 14.271-29.188 38.453-40.778 72.545l-19.07-4.895c14.18-61.097 43.33-106.003 87.454-134.719l.286-.659h.734l.813-.519-.03.519z" fill="#DDE3E9"/></g></g></g></svg>